<?xml version="1.0" encoding="UTF-8"?>
<svg version="1.1" xmlns="http://www.w3.org/2000/svg" width="1550" height="1214">
<path d="M0 0 C2.7885289 -0.22107787 5.34653181 -0.28107535 8.125 -0.1875 C8.87910156 -0.17396484 9.63320312 -0.16042969 10.41015625 -0.14648438 C12.27374127 -0.11109985 14.13695978 -0.05729167 16 0 C15.78609619 0.50708496 15.57219238 1.01416992 15.35180664 1.53662109 C12.20479663 9.01209574 9.09621815 16.50337714 6 24 C5.53188904 25.13278381 5.53188904 25.13278381 5.05432129 26.28845215 C-3.05165831 45.92026248 -11.02735408 65.58591589 -18.25 85.5625 C-18.51036041 86.27869507 -18.77072083 86.99489014 -19.03897095 87.73278809 C-22.77515238 98.04520473 -25.98141871 108.45728026 -29 119 C-29.51564151 120.73384458 -30.03338632 122.4670674 -30.5546875 124.19921875 C-40.63253059 158.19197293 -49.8280988 195.34059498 -49 231 C-48.20737567 226.8960177 -47.41607948 222.79178034 -46.625 218.6875 C-46.40328125 217.53958984 -46.1815625 216.39167969 -45.953125 215.20898438 C-45.73398438 214.07138672 -45.51484375 212.93378906 -45.2890625 211.76171875 C-45.07024414 210.63169434 -44.85142578 209.50166992 -44.62597656 208.33740234 C-44.21551016 206.14899526 -43.82606026 203.95651881 -43.45996094 201.76025391 C-43.2952832 200.77331543 -43.13060547 199.78637695 -42.9609375 198.76953125 C-42.75283447 197.45819214 -42.75283447 197.45819214 -42.54052734 196.12036133 C-42 194 -42 194 -40 192 C-39.01 192 -38.02 192 -37 192 C-37.33 187.71 -37.66 183.42 -38 179 C-36.35 178.67 -34.7 178.34 -33 178 C-32.67 177.01 -32.34 176.02 -32 175 C-30.68 175 -29.36 175 -28 175 C-28 173.35 -28 171.7 -28 170 C-28.928125 169.814375 -28.928125 169.814375 -29.875 169.625 C-32 169 -32 169 -34 167 C-35.11507159 158.89047194 -33.18179113 151.10376601 -31.125 143.3125 C-30.81183838 142.10190918 -30.49867676 140.89131836 -30.17602539 139.64404297 C-18.801052 96.54091055 -2.33768734 54.97242967 14.625 13.8125 C14.88951965 13.16932831 15.15403931 12.52615662 15.42657471 11.86349487 C16.16943865 10.06011598 16.91664055 8.25852583 17.6640625 6.45703125 C18.09154785 5.42553955 18.5190332 4.39404785 18.95947266 3.33129883 C20 1 20 1 21 0 C22.99958364 -0.04080783 25.00045254 -0.04254356 27 0 C27.61988808 7.19070168 27.61988808 7.19070168 24.75 10.9375 C24.29753906 11.40542969 23.84507812 11.87335937 23.37890625 12.35546875 C20.61266734 15.65458087 18 20.63241486 18 25 C18.99 25 19.98 25 21 25 C21.24645264 24.45585449 21.49290527 23.91170898 21.74682617 23.35107422 C22.88413946 20.85455876 24.03567081 18.36484948 25.1875 15.875 C25.76854492 14.59109375 25.76854492 14.59109375 26.36132812 13.28125 C28.70990474 8.23472175 30.88965569 3.81321099 35 0 C38.11328125 -0.5859375 38.11328125 -0.5859375 41.3125 -0.375 C42.91544922 -0.29378906 42.91544922 -0.29378906 44.55078125 -0.2109375 C45.35902344 -0.14132812 46.16726563 -0.07171875 47 0 C45.71522724 4.30535554 43.98910646 8.16278933 41.98168945 12.15893555 C18.79154321 58.58979129 0.3107552 111.9598211 -11.21386719 162.52099609 C-12.39166659 167.653122 -13.752657 172.68204913 -15.32348633 177.70849609 C-16.19951367 180.67579767 -16.85488935 183.6692192 -17.47265625 186.69921875 C-18 189 -18 189 -19 192.1328125 C-20.21328748 196.82482266 -20.57590719 201.36799685 -20.9375 206.1875 C-22.46600968 223.9452764 -22.46600968 223.9452764 -25.97998047 230.95483398 C-28.97625445 236.99334524 -29.56316503 241.86812264 -29.375 248.5625 C-29.35920898 249.55628662 -29.34341797 250.55007324 -29.32714844 251.57397461 C-28.77540217 293.19970619 -28.77540217 293.19970619 -10 329 C23.23979132 352.20909672 64.06111069 347.49565587 101.8125 341.125 C102.91342484 340.94067413 102.91342484 340.94067413 104.03659058 340.75262451 C117.66952768 338.44907362 131.47432852 335.90646224 144.3125 330.625 C145.12968506 330.29177734 145.94687012 329.95855469 146.78881836 329.61523438 C168.53107261 320.47078697 188.91907195 308.27872631 209 296 C210.03253906 295.3694873 211.06507813 294.73897461 212.12890625 294.08935547 C237.57329293 278.49532602 263.24262384 262.39811079 286 243 C287.11842778 242.05591636 288.2369213 241.1119106 289.35546875 240.16796875 C295.58743372 234.88548161 301.68837074 229.49163535 307.67382812 223.93188477 C310.83514752 221.01418902 314.08443651 218.25657991 317.4375 215.5625 C329.87735674 205.51280853 341.1101249 194.07630275 352.40429688 182.78100586 C354.88652207 180.30098817 357.37668116 177.82911996 359.8671875 175.35742188 C361.47184296 173.75569787 363.07602643 172.15350085 364.6796875 170.55078125 C365.77831619 169.46293083 365.77831619 169.46293083 366.8991394 168.35310364 C376.63930759 159.35302065 376.63930759 159.35302065 382.15112305 148.08984375 C382.10511963 147.37957031 382.05911621 146.66929687 382.01171875 145.9375 C381.94114258 144.74060547 381.94114258 144.74060547 381.86914062 143.51953125 C381.80919922 142.68808594 381.74925781 141.85664062 381.6875 141 C381.63916016 140.19949219 381.59082031 139.39898438 381.54101562 138.57421875 C381.33154269 135.24916734 381.10130013 131.93314847 380.74169922 128.62060547 C378.28736706 105.78328972 378.04453567 80.4642296 383 58 C383.23638184 56.90848633 383.47276367 55.81697266 383.71630859 54.69238281 C385.67742554 45.76201724 387.80812764 36.876166 390 28 C390.16514099 27.33015076 390.33028198 26.66030151 390.50042725 25.97015381 C392.63783693 17.30606172 394.80743277 8.65031085 397 0 C401.62 0 406.24 0 411 0 C410.03739411 6.41737258 408.88647446 12.65752927 407.25 18.9375 C402.2461385 38.3404753 398.45541166 57.97358639 396.29370117 77.89477539 C396 80 396 80 395.47216797 82.03198242 C394.66744219 85.38611607 394.8981116 88.82017923 394.9375 92.25 C394.94201172 92.99507812 394.94652344 93.74015625 394.95117188 94.5078125 C394.96290754 96.3385764 394.9808415 98.16929873 395 100 C395.42344939 97.88275303 395.84684802 95.76549589 396.27001953 93.64819336 C396.63340205 91.83242552 396.99766824 90.01683432 397.36279297 88.20141602 C398.21667669 83.95039682 399.0628376 79.69893668 399.86328125 75.4375 C399.99307373 74.75695557 400.12286621 74.07641113 400.2565918 73.37524414 C400.60525057 71.54137753 400.94735423 69.70626817 401.2890625 67.87109375 C402 65 402 65 404 62 C404.99 62 405.98 62 407 62 C406.67 57.71 406.34 53.42 406 49 C407.32 48.67 408.64 48.34 410 48 C410.33 47.34 410.66 46.68 411 46 C413.5625 45.375 413.5625 45.375 416 45 C416.33 43.35 416.66 41.7 417 40 C415.824375 40.061875 415.824375 40.061875 414.625 40.125 C412 40 412 40 410 38 C407.93328989 25.88811747 412.82731567 11.26624769 417 0 C420.96 0 424.92 0 429 0 C427.95206337 4.19174654 427.08236365 5.21592961 424 8 C424.33 8.33 424.66 8.66 425 9 C426.32 9 427.64 9 429 9 C430.485 4.545 430.485 4.545 432 0 C434.97 0 437.94 0 441 0 C439.48513148 7.14152303 437.62845952 14.15125889 435.6875 21.1875 C433.11126716 30.61667339 430.74400148 40.06185453 428.6862793 49.61791992 C427.76040547 53.87196838 426.71147684 58.00337612 425.38671875 62.15234375 C424.09335238 66.35189371 423.64207875 70.14821975 423.5625 74.5625 C423.12812517 85.73117779 420.90665487 96.71227015 415.81323242 106.71459961 C414.81783578 109.51193013 414.82883713 111.79640792 414.890625 114.7578125 C414.90641602 115.74152832 414.92220703 116.72524414 414.93847656 117.73876953 C414.9587793 118.48497559 414.97908203 119.23118164 415 120 C418.00831496 117.01669981 421.01310394 114.02990259 424.01489258 111.04003906 C425.03317292 110.02673848 426.05235474 109.01434288 427.07250977 108.00292969 C432.93881646 102.18558088 438.66424794 96.31564338 444 90 C444.87459539 88.99313798 445.74956629 87.98660196 446.625 86.98046875 C450.50964205 82.41218081 454.14871965 77.94483015 457.1875 72.75 C465.26229454 59.63081167 477.781371 49.16507403 488.97265625 38.765625 C496.38594752 31.8664389 503.64241123 24.79142819 510.2109375 17.07421875 C513.31152133 13.47943706 516.55174186 10.00897624 519.765625 6.515625 C521.98678915 4.17094268 521.98678915 4.17094268 523.27954102 1.8671875 C525 0 525 0 527.63549805 -0.45410156 C529.18297729 -0.42268066 529.18297729 -0.42268066 530.76171875 -0.390625 C531.87998047 -0.37773438 532.99824219 -0.36484375 534.15039062 -0.3515625 C535.31763672 -0.31804688 536.48488281 -0.28453125 537.6875 -0.25 C538.86634766 -0.23195313 540.04519531 -0.21390625 541.25976562 -0.1953125 C544.17398926 -0.14811859 547.08659031 -0.08229077 550 0 C547.61862148 4.04975663 544.97838554 7.75973182 542.0625 11.4375 C541.58087402 12.04658203 541.09924805 12.65566406 540.60302734 13.28320312 C532.14885673 23.90070297 523.1706337 33.98882054 513.89453125 43.890625 C511.12211412 46.85518985 508.44230141 49.88945403 505.7890625 52.9609375 C502.08418628 57.18352568 498.25289789 61.29415873 494.44824219 65.42675781 C492.08808293 67.99062603 489.73095763 70.55727089 487.375 73.125 C486.91351562 73.62773438 486.45203125 74.13046875 485.9765625 74.6484375 C483.21280889 77.66344144 480.47421805 80.6992839 477.75 83.75 C473.1598884 88.86563421 468.45790087 93.87332078 463.74389648 98.87451172 C460.63657336 102.17391537 457.5465658 105.48487351 454.5078125 108.84765625 C453.96680908 109.44408936 453.42580566 110.04052246 452.8684082 110.6550293 C451.85934842 111.77048923 450.85497065 112.8902095 449.85620117 114.01489258 C447.44730218 116.67143137 445.3723423 118.68897231 442 120 C442.32433508 114.64847115 445.49704824 111.71719957 449 108 C445.39364504 110.78204526 442.14156922 113.70135232 439 117 C438.52949219 117.48726562 438.05898438 117.97453125 437.57421875 118.4765625 C435.31583202 120.95760708 434.05527522 122.49146802 433.6875 125.875 C433.790625 126.57625 433.89375 127.2775 434 128 C433.05125 128.33 432.1025 128.66 431.125 129 C425.77742031 131.27299588 421.19473643 135.02470653 417 139 C417 139.66 417 140.32 417 141 C421.95 136.545 421.95 136.545 427 132 C427 135 427 135 424.8125 137.3828125 C423.884375 138.28773438 422.95625 139.19265625 422 140.125 C417.708577 144.44609202 417.708577 144.44609202 416.1875 150.125 C416.39758121 151.75896499 416.68053009 153.38385809 417 155 C417.1753125 156.258125 417.350625 157.51625 417.53125 158.8125 C419.71421087 173.76216095 423.21549082 190.56338132 435.62890625 200.4609375 C444.37555778 206.13833569 453.90081456 210.44101878 464 213 C464.969375 213.350625 465.93875 213.70125 466.9375 214.0625 C482.0067676 218.6755411 497.94618775 217.21767236 513.4375 215.875 C514.55277573 215.77946838 514.55277573 215.77946838 515.69058228 215.68200684 C571.1342215 210.8103255 615.05289101 190.02907935 662 161 C663.00240723 160.38334473 664.00481445 159.76668945 665.03759766 159.13134766 C678.61143018 150.77672808 691.99805557 142.22355467 705 133 C705.79776855 132.4342627 706.59553711 131.86852539 707.41748047 131.28564453 C717.91310519 123.79772122 727.90469469 115.93628913 737.5078125 107.33349609 C739.38209906 105.65853648 741.28426716 104.01692833 743.1875 102.375 C747.04249636 98.99872868 750.80432473 95.52101541 754.57446289 92.05078125 C758.01362365 88.88973588 761.49660683 85.78895456 765.0234375 82.7265625 C768.15961129 79.98705892 771.25232514 77.20038449 774.33984375 74.40625 C776.07538076 72.8363663 777.81730499 71.27350668 779.56640625 69.71875 C786.52666001 63.46145217 793.18519587 56.92088044 799.8125 50.3125 C800.70815674 49.42143555 801.60381348 48.53037109 802.52661133 47.61230469 C807.55864938 42.56853476 812.37427731 37.41730707 817 32 C820.6875 27.875 820.6875 27.875 822.32421875 26.0546875 C824.11514401 23.93488895 824.11514401 23.93488895 825.8359375 21.16796875 C828.26887407 17.60639554 830.98468055 14.56726743 833.9375 11.4375 C834.44990234 10.88642578 834.96230469 10.33535156 835.49023438 9.76757812 C836.50779894 8.67760744 837.53795618 7.59924672 838.58081055 6.53344727 C840.19866845 4.85512147 840.19866845 4.85512147 842.015625 2.1171875 C847.07994872 -1.47556572 852.78862664 -0.5150617 858.8125 -0.3125 C860.07771484 -0.28994141 861.34292969 -0.26738281 862.64648438 -0.24414062 C865.76552619 -0.18529078 868.88215902 -0.1031137 872 0 C868.5225468 3.58612361 864.8745408 6.88452746 861.1015625 10.15673828 C857.6621371 13.17342761 854.32898399 16.29993652 851 19.4375 C850.27522461 20.12054199 849.55044922 20.80358398 848.80371094 21.50732422 C843.55259869 26.48008889 838.37364297 31.52107254 833.25 36.625 C832.59515625 37.27525146 831.9403125 37.92550293 831.265625 38.59545898 C828.47667895 41.39348364 825.77873991 44.19808164 823.27734375 47.2578125 C821.38110118 49.54110972 819.58884106 51.37362342 817.3125 53.25 C814.04876748 56.02816779 811.00998434 58.94840297 808 62 C803.82191958 66.21606297 799.52373026 70.16168341 795 74 C792.70657765 75.95628203 790.41564465 77.91546677 788.125 79.875 C787.51648193 80.39473389 786.90796387 80.91446777 786.28100586 81.44995117 C782.7435638 84.47886522 779.25603677 87.55151994 775.8125 90.6875 C770.70524518 95.32736877 765.37599207 99.6767212 760 104 C764.41768486 101.12850484 768.61338454 98.074306 772.75 94.8125 C773.36053223 94.33200195 773.97106445 93.85150391 774.60009766 93.35644531 C779.14875598 89.74473183 783.50776713 85.9659174 787.78515625 82.03515625 C789.76565997 80.21532831 791.77626277 78.44433669 793.8125 76.6875 C796.28716301 74.53911102 798.71166587 72.34695074 801.10546875 70.109375 C801.94404419 69.32687378 801.94404419 69.32687378 802.79956055 68.52856445 C803.89675172 67.50194638 804.99090195 66.47206402 806.08129883 65.43823242 C808.90426562 62.79730782 811.77166028 60.39155644 814.90234375 58.12109375 C819.36035739 54.83812247 823.18985079 51.06901713 827.0625 47.125 C827.73087891 46.45597656 828.39925781 45.78695312 829.08789062 45.09765625 C832.2056355 41.95264247 835.22656768 38.77372235 838.09375 35.3984375 C843.83309265 28.75288285 850.21188823 22.68422742 856.4375 16.5 C857.75479059 15.18773415 859.07184986 13.87523605 860.38867188 12.5625 C863.5897861 9.37231494 866.79401865 6.18529349 870 3 C870.66 3.33 871.32 3.66 872 4 C871.35933594 4.70125 870.71867187 5.4025 870.05859375 6.125 C869.19363281 7.07375 868.32867188 8.0225 867.4375 9 C866.97786865 9.50402344 866.5182373 10.00804687 866.04467773 10.52734375 C863.50760295 13.31683951 861.01137556 16.13302373 858.5625 19 C855.24253892 22.83012058 851.65405497 26.37135947 848.05151367 29.93139648 C844.79561029 33.16376727 841.71111532 36.47847894 838.75390625 39.984375 C837.45603995 41.47590954 836.09981994 42.91710652 834.71484375 44.328125 C830.69626059 48.48392807 827.7761904 51.77706181 826.125 57.375 C823.16027424 66.97635956 814.38527765 74.07386071 806.89453125 80.359375 C804.82591345 82.15075536 802.91793683 84.04854583 801 86 C797.89238219 89.14969387 794.67228422 92.07951907 791.3203125 94.96484375 C788.39519168 97.53048002 785.54137676 100.16814311 782.6875 102.8125 C781.55859983 103.85677741 780.42969358 104.90104824 779.30078125 105.9453125 C777.23542651 107.85650047 775.17039096 109.76803212 773.10546875 111.6796875 C767.90731035 116.45396174 762.61245583 121.04375019 757.1171875 125.47265625 C754.78762058 127.35047916 752.48742603 129.26024117 750.1953125 131.18359375 C739.77332656 139.90584605 729.01181925 148.04017129 718 156 C716.49967258 157.09199821 714.99966685 158.18443855 713.5 159.27734375 C698.06828913 170.50164154 682.44186231 181.43065484 666.59191895 192.05587769 C665.30504145 192.91892739 664.01911277 193.78339397 662.73425293 194.64944458 C655.01483904 199.84714088 647.23265055 204.68483647 639.03662109 209.10009766 C635.86509848 211.08440293 633.5775736 213.30597556 631 216 C622.21668724 221.8218893 612.75156544 226.08941054 603 230 C602.19949219 230.34933594 601.39898438 230.69867187 600.57421875 231.05859375 C597.91109097 232.03251453 595.25195072 232.65729965 592.48022461 233.2421875 C585.09044115 234.80532852 578.02206107 236.8794817 570.9375 239.5 C570.16519043 239.78447998 569.39288086 240.06895996 568.59716797 240.36206055 C564.90927565 241.76167272 561.41705098 243.27716597 557.94140625 245.14453125 C553.98770492 247.16749135 550.3938119 247.8154329 546 248.1875 C545.25564697 248.26081543 544.51129395 248.33413086 543.74438477 248.40966797 C541.49741761 248.6235741 539.24935059 248.8131058 537 249 C535.83339844 249.11214844 534.66679688 249.22429687 533.46484375 249.33984375 C513.3408733 250.9666985 491.37398626 252.42083779 472 246 C470.97261719 245.71125 469.94523438 245.4225 468.88671875 245.125 C460.09156551 242.51557705 452.0678207 238.29246625 444 234 C443.06929687 233.51660156 442.13859375 233.03320312 441.1796875 232.53515625 C429.99382203 226.33077749 421.29556941 216.55198575 413 207 C412.40832031 206.36964844 411.81664062 205.73929688 411.20703125 205.08984375 C402.8074999 196.03680195 396.67108213 184.89737351 391 174 C384.63670673 180.38996059 384.63670673 180.38996059 381.8515625 188.78125 C379.70068516 194.38537077 374.18054211 198.8034813 370 203 C369.03565859 203.98880401 368.07209796 204.97837016 367.109375 205.96875 C362.67216947 210.4803221 358.16270507 214.82531357 353.3515625 218.93359375 C350.0416608 221.84212864 346.83875864 224.86101126 343.625 227.875 C337.81028985 233.31970902 331.97132673 238.72650584 326 244 C325.45408203 244.48291504 324.90816406 244.96583008 324.34570312 245.46337891 C316.0779226 252.75940347 307.65477959 259.77755412 298.92333984 266.51074219 C296.81199493 268.14557387 294.71213969 269.794484 292.61328125 271.4453125 C284.15992107 278.08228539 275.61729821 284.5215581 266.82666016 290.703125 C264.87613022 292.0879439 262.94263419 293.49421899 261.01171875 294.90625 C249.13624738 303.58337747 237.01780212 311.87960105 224.82128906 320.09814453 C222.37514672 321.74711034 219.93294872 323.40168159 217.4921875 325.05859375 C198.70071684 337.76642772 198.70071684 337.76642772 192 340 C191.38253906 340.77730469 190.76507813 341.55460937 190.12890625 342.35546875 C183.03022151 351.17346796 169.19583066 355.10200418 158.97045898 359.2043457 C157.44213138 359.82147117 155.92545046 360.46747774 154.4140625 361.125 C151.79161529 362.07553103 149.15605378 362.67129004 146.42871094 363.24243164 C139.12386768 364.77874097 132.20264341 366.84084247 125.25 369.5625 C124.12525269 370.00178833 124.12525269 370.00178833 122.9777832 370.44995117 C120.00647169 371.64758712 117.31478446 372.79540301 114.61816406 374.5480957 C111.7038809 376.16421301 109.58164601 376.56525339 106.28125 376.9140625 C105.18296875 377.03523438 104.0846875 377.15640625 102.953125 377.28125 C101.81359375 377.3946875 100.6740625 377.508125 99.5 377.625 C98.39140625 377.74617188 97.2828125 377.86734375 96.140625 377.9921875 C58.11452097 382.0600963 19.60393284 380.53930508 -11.8125 355.6875 C-13.21640221 354.46755739 -14.61363627 353.23983748 -16 352 C-17.010625 351.236875 -18.02125 350.47375 -19.0625 349.6875 C-22.67965391 346.37818898 -25.60324424 342.70559295 -28.6484375 338.87109375 C-30.80620308 336.23661252 -33.07138773 333.82054006 -35.4375 331.375 C-50.61390974 314.50938987 -59.25808224 291.24735344 -62 269 C-62.13121246 267.96034592 -62.13121246 267.96034592 -62.26507568 266.89968872 C-63.84717046 254.112416 -64.44562986 241.44327883 -64.4375 228.5625 C-64.43723816 227.59934875 -64.43697632 226.63619751 -64.43670654 225.64385986 C-64.38655202 209.9629662 -63.14894629 195.34668601 -59.48486328 180.04943848 C-58.94008705 177.74675767 -58.41604818 175.43989469 -57.89453125 173.13183594 C-52.31570634 148.4689684 -45.98263539 124.20201872 -38.19384766 100.14013672 C-35.9892765 93.22254599 -34.18216226 86.21378822 -32.53100586 79.14428711 C-28.10911345 61.18524157 -20.53514643 44.08734867 -12.96142578 27.27905273 C-11.59752772 24.25151797 -10.24525302 21.2189803 -8.89453125 18.18554688 C-8.02669038 16.2445015 -7.15822565 14.3037349 -6.2890625 12.36328125 C-5.88700592 11.46346024 -5.48494934 10.56363922 -5.07070923 9.6365509 C-4.50904556 8.39200386 -4.50904556 8.39200386 -3.93603516 7.12231445 C-3.44594467 6.03271172 -3.44594467 6.03271172 -2.94595337 4.9210968 C-2 3 -2 3 0 0 Z " fill="#713131" transform="translate(229,747)"/>
<path d="M0 0 C3.54302988 -0.08640267 7.08572712 -0.14269735 10.62957764 -0.18206787 C12.03222739 -0.20013361 13.43481019 -0.22476117 14.83721924 -0.25640869 C31.53150178 -0.61158494 41.75577886 5.06730749 53.81982422 16.35302734 C65.03111166 28.08670453 68.58692538 41.55425611 68.56665039 57.39526367 C67.18012772 106.47455295 47.88319127 156.75990812 28.06982422 201.10302734 C27.68616699 201.96283203 27.30250977 202.82263672 26.90722656 203.70849609 C21.39522129 215.94334855 15.06939537 227.69242651 8.55322266 239.41699219 C7.15725674 241.94471059 5.78464825 244.48333569 4.42138672 247.02880859 C-5.46538771 265.42025521 -16.12801822 283.60691042 -28.63476562 300.35253906 C-30.13583664 302.38093695 -31.60625379 304.42980216 -33.07470703 306.48193359 C-41.7712515 318.6333919 -50.43257403 330.65673215 -60.62939453 341.61474609 C-62.62670013 343.77482023 -64.53560916 345.97850679 -66.43017578 348.22802734 C-76.33553157 359.52523641 -86.90110674 366.77951483 -101.93017578 369.10302734 C-106.2786438 369.31696267 -110.58155151 369.29240292 -114.93017578 369.10302734 C-115.26017578 368.44302734 -115.59017578 367.78302734 -115.93017578 367.10302734 C-116.96142578 367.04115234 -117.99267578 366.97927734 -119.05517578 366.91552734 C-124.49166202 365.77561894 -126.73838054 363.57699674 -129.93017578 359.10302734 C-132.17239961 355.15019681 -134.11255936 351.05766759 -136.03564453 346.94287109 C-137.23899577 344.39180445 -138.55073125 342.08159251 -140.15673828 339.76318359 C-141.93017578 337.10302734 -141.93017578 337.10302734 -142.11767578 334.60302734 C-140.08129153 330.3159026 -136.15022897 327.21305394 -131.93017578 325.10302734 C-128.36767578 324.97802734 -128.36767578 324.97802734 -124.93017578 325.10302734 C-124.60017578 325.43302734 -124.27017578 325.76302734 -123.93017578 326.10302734 C-114.35345533 327.68910893 -106.89516535 323.63594818 -99.26220703 318.20458984 C-96.75324953 316.23632241 -94.3337957 314.19828813 -91.93017578 312.10302734 C-91.14642578 311.44044922 -90.36267578 310.77787109 -89.55517578 310.09521484 C-85.25500988 306.39068003 -81.37869952 302.53689451 -77.71923828 298.20068359 C-75.8087144 295.9606152 -73.81082354 293.82068702 -71.80517578 291.66552734 C-65.36953303 284.5208731 -59.6657961 276.81114551 -53.93017578 269.10302734 C-53.10912354 268.0032959 -53.10912354 268.0032959 -52.27148438 266.88134766 C-39.97989988 250.35368037 -29.16299392 232.96619238 -18.93017578 215.10302734 C-18.32375244 214.04680176 -18.32375244 214.04680176 -17.70507812 212.96923828 C7.20648808 169.38633966 28.97709811 118.36206785 35.06982422 68.10302734 C35.16263672 67.44375244 35.25544922 66.78447754 35.35107422 66.10522461 C36.30948556 58.77252214 36.29096257 51.42550192 36.31982422 44.04052734 C36.34059434 42.70393782 36.36142728 41.36734927 36.38232422 40.03076172 C36.41049246 32.99926537 36.15201374 27.47018202 33.06982422 21.10302734 C27.34459207 20.77994994 23.03506396 21.77239016 17.69482422 23.79052734 C16.88682373 24.091604 16.07882324 24.39268066 15.24633789 24.70288086 C4.71448276 28.80085968 -5.1545417 34.27066361 -15.09960938 39.60058594 C-18.84315578 41.58762963 -22.62809527 43.48118189 -26.43017578 45.35302734 C-44.28616549 54.21818345 -44.28616549 54.21818345 -61.13183594 64.83935547 C-63.31094046 66.37058612 -65.50164293 67.88466086 -67.69189453 69.39990234 C-76.91025455 75.79548181 -86.00236181 82.30757839 -94.93017578 89.10302734 C-96.19222691 90.04703348 -97.45531607 90.98965286 -98.71923828 91.93115234 C-119.93081708 107.73811606 -140.5472544 124.25861317 -159.91064453 142.29833984 C-162.57854927 144.78367274 -165.27748471 147.23181541 -167.99267578 149.66552734 C-172.132779 153.37757466 -176.2428051 157.12128405 -180.33544922 160.88549805 C-182.82476212 163.17501708 -185.32074739 165.45522516 -187.83251953 167.72021484 C-193.60666027 172.94406834 -199.22518259 178.29557684 -204.74267578 183.79052734 C-205.35280518 184.39606445 -205.96293457 185.00160156 -206.59155273 185.62548828 C-209.60795027 188.6521387 -212.51238815 191.73162164 -215.30517578 194.96630859 C-219.39461028 199.69255182 -223.72668138 204.15773376 -228.11767578 208.60302734 C-228.91109375 209.42544922 -229.70451172 210.24787109 -230.52197266 211.09521484 C-231.28960938 211.87123047 -232.05724609 212.64724609 -232.84814453 213.44677734 C-233.88104614 214.50155273 -233.88104614 214.50155273 -234.93481445 215.57763672 C-236.93017578 217.10302734 -236.93017578 217.10302734 -240.93017578 217.10302734 C-250.09353178 223.33624044 -257.61089211 233.02098889 -265.08691406 241.11132812 C-266.67129093 242.82329454 -268.26479703 244.5258125 -269.86376953 246.22412109 C-274.81044763 251.54122127 -279.27127985 257.05443183 -283.56298828 262.91162109 C-286.65819736 267.08453499 -289.88161061 271.14964191 -293.12524414 275.20776367 C-295.92211564 278.73156398 -298.48318756 282.32702221 -300.93017578 286.10302734 C-295.98017578 281.15302734 -295.98017578 281.15302734 -290.93017578 276.10302734 C-290.27017578 276.43302734 -289.61017578 276.76302734 -288.93017578 277.10302734 C-297.23864041 291.24289883 -306.88527512 304.47094304 -316.43017578 317.79052734 C-323.28710544 327.30129931 -323.28710544 327.30129931 -329.18017578 337.41552734 C-331.55691727 341.80568679 -334.5978683 345.3893556 -337.84399414 349.16430664 C-345.32371819 357.97314663 -352.41026662 367.65596018 -356.83251953 378.38037109 C-357.37585938 379.23308594 -357.37585938 379.23308594 -357.93017578 380.10302734 C-358.57140381 380.23572021 -359.21263184 380.36841309 -359.87329102 380.50512695 C-362.36088094 380.97758235 -362.36088094 380.97758235 -363.93798828 384.39208984 C-364.65431391 385.83217994 -365.35931485 387.27793788 -366.05517578 388.72802734 C-368.98822957 394.54780108 -372.05845347 400.10013834 -375.74267578 405.47802734 C-376.15267822 406.07905273 -376.56268066 406.68007813 -376.98510742 407.29931641 C-377.84486983 408.55953191 -378.7048191 409.81961995 -379.56494141 411.07958984 C-386.49491362 421.35062163 -392.96147157 431.82695294 -398.64404297 442.83789062 C-401.56958863 448.49315701 -404.73265377 453.97380846 -407.98706055 459.44506836 C-416.55130095 473.85147928 -424.74038996 488.48136428 -432.93017578 503.10302734 C-437.22017578 503.10302734 -441.51017578 503.10302734 -445.93017578 503.10302734 C-445.27017578 499.80302734 -444.61017578 496.50302734 -443.93017578 493.10302734 C-442.61017578 492.77302734 -441.29017578 492.44302734 -439.93017578 492.10302734 C-439.78580078 491.33990234 -439.64142578 490.57677734 -439.49267578 489.79052734 C-438.93017578 487.10302734 -438.93017578 487.10302734 -437.93017578 484.10302734 C-437.89142657 482.43681119 -437.88514718 480.76908563 -437.93017578 479.10302734 C-435.95017578 478.44302734 -433.97017578 477.78302734 -431.93017578 477.10302734 C-431.89279297 476.48814453 -431.85541016 475.87326172 -431.81689453 475.23974609 C-431.75115234 474.43150391 -431.68541016 473.62326172 -431.61767578 472.79052734 C-431.55966797 471.99001953 -431.50166016 471.18951172 -431.44189453 470.36474609 C-430.83713206 467.69178831 -429.92136381 466.91227941 -427.93017578 465.10302734 C-427.22937499 463.46782549 -426.53381933 461.83000351 -425.87548828 460.17724609 C-424.77232579 457.75667053 -423.41482014 455.60058714 -421.99267578 453.35302734 C-418.80820606 448.1911687 -416.78989395 442.85721416 -414.93017578 437.10302734 C-415.59017578 437.43302734 -416.25017578 437.76302734 -416.93017578 438.10302734 C-417.19830078 439.05177734 -417.46642578 440.00052734 -417.74267578 440.97802734 C-418.93017578 444.10302734 -418.93017578 444.10302734 -421.28173828 445.47412109 C-427.65964253 449.39681442 -432.30462116 459.11638199 -434.93017578 466.10302734 C-435.07455078 467.31990234 -435.21892578 468.53677734 -435.36767578 469.79052734 C-436.09758077 474.08885671 -437.83245916 475.07414887 -440.93017578 478.10302734 C-444.06987976 482.8690528 -447.08788269 487.62999383 -447.55517578 493.41552734 C-448.00786516 497.86697294 -448.75626504 499.9291166 -451.93017578 503.10302734 C-454.99320464 503.59944926 -457.85670694 503.45765836 -460.93017578 503.10302734 C-459.54108037 498.56901306 -457.72785205 494.50832016 -455.55126953 490.29833984 C-455.05890556 489.34301613 -455.05890556 489.34301613 -454.55659485 488.36839294 C-453.49832232 486.31913112 -452.43335225 484.27344732 -451.36767578 482.22802734 C-450.63813285 480.82042018 -449.90864079 479.41278664 -449.17919922 478.00512695 C-444.85202077 469.67660634 -440.43283085 461.41661 -435.72705078 453.29443359 C-432.05023088 446.76408173 -428.8877206 439.99283669 -425.80517578 433.16552734 C-425.28503906 432.04500977 -425.28503906 432.04500977 -424.75439453 430.90185547 C-423.04837434 427.11396772 -421.71813843 423.54597032 -420.89892578 419.46630859 C-416.963124 399.916516 -399.46611078 379.93489646 -387.93017578 364.10302734 C-387.43517578 363.42111328 -386.94017578 362.73919922 -386.43017578 362.03662109 C-379.36060238 352.33436802 -371.89174116 343.08618427 -363.93017578 334.10302734 C-363.14900391 333.22130859 -362.36783203 332.33958984 -361.56298828 331.43115234 C-359.36562089 328.97573113 -357.15139906 326.53688054 -354.93017578 324.10302734 C-354.01215038 323.09136 -353.09418456 322.07963858 -352.17626953 321.06787109 C-342.10010902 309.98718538 -342.10010902 309.98718538 -336.93017578 305.10302734 C-336.39650391 304.59771484 -335.86283203 304.09240234 -335.31298828 303.57177734 C-332.19167232 300.77656902 -331.28812445 300.10302734 -326.93017578 300.10302734 C-326.55517578 302.25927734 -326.55517578 302.25927734 -326.93017578 305.10302734 C-328.88558374 307.12997462 -330.76295537 308.83589089 -332.93017578 310.60302734 C-340.53274805 317.1753735 -345.15667736 324.27658481 -349.48095703 333.36083984 C-350.93017578 336.10302734 -350.93017578 336.10302734 -353.49267578 338.10302734 C-356.16152533 339.90766677 -356.16152533 339.90766677 -356.74267578 342.91552734 C-358.03043143 346.37213461 -358.9645609 347.20266833 -361.74267578 349.47802734 C-366.89957021 353.70668077 -370.53911663 358.49915707 -371.93017578 365.10302734 C-373.25017578 365.43302734 -374.57017578 365.76302734 -375.93017578 366.10302734 C-375.81029297 367.45074219 -375.81029297 367.45074219 -375.68798828 368.82568359 C-375.9845885 372.83935427 -376.965163 373.78642242 -379.80517578 376.54052734 C-383.39088906 380.25658475 -383.39088906 380.25658475 -385.18017578 384.97802734 C-386.06262725 388.65490845 -386.93555638 389.04422651 -389.93017578 391.10302734 C-390.3575 392.21484375 -390.3575 392.21484375 -390.79345703 393.34912109 C-392.12794868 396.58216786 -393.92458886 398.81898575 -396.11767578 401.54052734 C-400.35238013 407.04836628 -403.39816904 412.58982767 -406.32470703 418.87646484 C-407.93017578 422.10302734 -407.93017578 422.10302734 -410.12939453 425.26708984 C-412.28754085 428.10592449 -412.28754085 428.10592449 -411.93017578 432.10302734 C-406.9431064 425.70784425 -402.65456465 419.08580187 -398.55517578 412.10302734 C-388.56139169 395.15173114 -377.42267144 378.84455295 -365.98925781 362.83544922 C-362.4082778 357.81681289 -358.97713412 352.71215666 -355.58544922 347.56420898 C-352.71735594 343.23023995 -349.72917543 338.99873133 -346.68017578 334.79052734 C-339.79278524 325.50003494 -339.79278524 325.50003494 -334.93017578 315.10302734 C-333.43408203 313.70068359 -333.43408203 313.70068359 -331.49267578 312.16552734 C-323.84550396 305.68324729 -317.91552421 297.42043365 -311.83251953 289.50537109 C-309.01280534 285.94454105 -306.06322188 282.4956845 -303.11572266 279.04077148 C-300.18635633 275.60336192 -297.3211683 272.1245262 -294.49267578 268.60302734 C-290.64133932 263.86292093 -286.55265063 259.40044387 -282.37841797 254.94775391 C-279.18549301 251.52254212 -276.17053967 248.01157978 -273.24267578 244.35302734 C-269.75384141 240.00617946 -266.02178118 236.09076875 -262.03564453 232.20068359 C-259.5264357 229.70078537 -257.22970726 227.06518378 -254.92236328 224.38037109 C-251.39483454 220.34792157 -247.73008569 216.44040117 -244.08642578 212.51318359 C-242.07429047 210.34423456 -240.07387102 208.16570852 -238.08642578 205.97412109 C-231.59015058 198.83203048 -224.86665862 191.95760311 -217.98022461 185.18994141 C-214.65062568 181.90158441 -211.43392447 178.58636294 -208.38720703 175.03271484 C-204.98143523 171.07795296 -201.28640166 167.55088554 -197.43017578 164.04052734 C-193.01803181 159.99682014 -188.70113149 155.89664969 -184.48828125 151.64526367 C-182.64966727 149.82537578 -180.72597231 148.13827144 -178.74267578 146.47802734 C-174.71246043 142.98362097 -171.71151996 139.66571571 -169.30517578 134.85302734 C-167.4207927 131.37822495 -164.92673028 129.21831057 -161.93017578 126.66552734 C-158.06319887 123.33970172 -155.92619948 120.74068539 -153.99267578 116.08349609 C-152.22003782 112.77935107 -149.48028369 110.46954098 -146.73486328 107.96240234 C-144.91487656 106.08726451 -144.03310657 104.44485837 -142.93017578 102.10302734 C-145.87179864 105.01556067 -148.80773718 107.93375966 -151.74267578 110.85302734 C-152.99274414 112.09052734 -152.99274414 112.09052734 -154.26806641 113.35302734 C-155.07050781 114.15224609 -155.87294922 114.95146484 -156.69970703 115.77490234 C-157.43809814 116.50805664 -158.17648926 117.24121094 -158.93725586 117.99658203 C-160.9680345 120.05024592 -160.9680345 120.05024592 -162.56958008 122.37353516 C-163.01857666 122.94426758 -163.46757324 123.515 -163.93017578 124.10302734 C-164.59017578 124.10302734 -165.25017578 124.10302734 -165.93017578 124.10302734 C-166.17509766 124.69470703 -166.42001953 125.28638672 -166.67236328 125.89599609 C-168.14629194 128.48223737 -169.65811534 129.66575674 -172.05517578 131.41552734 C-180.86568272 138.0409165 -188.82943322 145.64234345 -196.93017578 153.10302734 C-208.51046216 163.76832814 -208.51046216 163.76832814 -212.74267578 167.41552734 C-222.26814474 175.73298464 -231.43717573 184.15538052 -239.50244141 193.91723633 C-243.00017388 198.12169435 -246.73999933 201.93893737 -250.68017578 205.72802734 C-255.75719851 210.62995452 -259.59320368 215.57211155 -263.24658203 221.64208984 C-264.94950884 224.13128681 -266.3422582 225.57589974 -268.93017578 227.10302734 C-269.92017578 227.10302734 -270.91017578 227.10302734 -271.93017578 227.10302734 C-270.19715255 213.98825693 -253.67012361 199.93637415 -244.97705078 190.36474609 C-243.10507888 188.29628859 -241.26154188 186.20741821 -239.43017578 184.10302734 C-235.32101295 179.38474156 -231.12509086 174.74501954 -226.93017578 170.10302734 C-230.82623127 173.0999931 -234.35018319 176.36652522 -237.80517578 179.85302734 C-238.33836426 180.38887451 -238.87155273 180.92472168 -239.42089844 181.47680664 C-242.71102139 184.8065153 -245.85653128 188.21354846 -248.89111328 191.77880859 C-251.82730971 195.12562253 -254.88323051 198.35717053 -257.93017578 201.60302734 C-262.12686309 206.07891101 -266.28902201 210.56632233 -270.29345703 215.21630859 C-272.3089135 217.53961522 -274.36866041 219.820512 -276.43017578 222.10302734 C-279.67984372 225.7034183 -282.88719789 229.33542522 -286.06689453 232.99755859 C-288.23254926 235.44470304 -290.45861685 237.83154252 -292.68017578 240.22802734 C-296.59545883 244.53423727 -300.35015725 248.93861327 -303.99267578 253.47802734 C-304.46995117 254.06084473 -304.94722656 254.64366211 -305.43896484 255.24414062 C-308.90668814 259.63380787 -310.06832239 262.53889153 -309.77001953 268.07568359 C-310.1709021 275.65334194 -317.94454743 282.42537422 -323.23486328 287.44287109 C-324.98986664 289.16148037 -326.54221854 290.96932847 -328.11767578 292.85302734 C-331.26841033 296.49897985 -334.66039422 299.81923534 -338.18017578 303.10302734 C-338.69990967 303.59641602 -339.21964355 304.08980469 -339.75512695 304.59814453 C-343.5731672 308.10302734 -343.5731672 308.10302734 -346.93017578 308.10302734 C-346.41897458 303.59958823 -344.7549622 301.22777309 -341.86767578 297.79052734 C-341.13419922 296.90751953 -340.40072266 296.02451172 -339.64501953 295.11474609 C-338.79617188 294.11894531 -338.79617188 294.11894531 -337.93017578 293.10302734 C-349.2902746 301.70254271 -357.08799003 314.9188644 -364.55517578 326.85302734 C-367.70761771 331.87060312 -371.21590003 336.49252088 -374.93017578 341.10302734 C-375.69330078 342.11365234 -376.45642578 343.12427734 -377.24267578 344.16552734 C-377.79955078 344.80490234 -378.35642578 345.44427734 -378.93017578 346.10302734 C-379.59017578 346.10302734 -380.25017578 346.10302734 -380.93017578 346.10302734 C-380.37233017 342.49078952 -379.48961738 340.00293897 -377.46850586 336.96557617 C-376.95318802 336.18318069 -376.43787018 335.40078522 -375.90693665 334.59468079 C-375.34355087 333.75825546 -374.7801651 332.92183014 -374.19970703 332.06005859 C-373.61283615 331.17758957 -373.02596527 330.29512054 -372.42131042 329.38591003 C-371.17176599 327.51140257 -369.91818022 325.63958374 -368.66088867 323.77026367 C-366.78441267 320.97764131 -364.92372296 318.17502632 -363.06494141 315.37060547 C-355.62199643 304.20727012 -347.79000719 293.47601023 -339.42276001 282.98908997 C-337.15334979 280.12141275 -334.94917082 277.2068442 -332.74267578 274.29052734 C-328.51953434 268.7865971 -324.09264593 263.49191048 -319.58251953 258.22412109 C-317.1446636 255.37190866 -314.78285241 252.46354982 -312.43017578 249.54052734 C-308.30561588 244.46983184 -303.93400979 239.67110255 -299.49267578 234.88037109 C-296.82531778 231.9893779 -294.23193975 229.04501092 -291.65283203 226.07568359 C-282.3772535 215.45398936 -272.90001673 204.92214234 -262.83509827 195.04039001 C-261.11236176 193.28831589 -259.52120434 191.4924808 -257.93579102 189.61694336 C-252.94539794 183.87984779 -247.53202768 178.56072312 -242.15283203 173.19287109 C-241.01600332 172.05536701 -239.87932295 170.91771467 -238.74278259 169.77992249 C-236.37172657 167.40740048 -233.99889305 165.03667494 -231.62475586 162.66723633 C-228.60119117 159.64936822 -225.58213945 156.62703159 -222.56441593 153.60332394 C-220.22147745 151.25675002 -217.87613539 148.91259 -215.53008842 146.56912422 C-214.41673094 145.45642778 -213.30409897 144.34300484 -212.19224739 143.22880363 C-202.47147294 133.4919922 -202.47147294 133.4919922 -197.89404297 129.57348633 C-193.06217567 125.43599033 -188.62994116 120.89847956 -184.16075706 116.37820816 C-182.55951235 114.75928105 -180.95450157 113.14417156 -179.34846497 111.52999878 C-174.78789754 106.9452378 -170.23305037 102.35482641 -165.68286133 97.75976562 C-162.88344333 94.93326953 -160.07892977 92.11190851 -157.27141762 89.29345322 C-156.21514711 88.23105778 -155.16076469 87.16678107 -154.10848045 86.10043716 C-147.38491861 79.28784021 -140.43535454 73.05473748 -132.93017578 67.10302734 C-131.75896906 66.12036535 -130.59270569 65.13174464 -129.43408203 64.13427734 C-123.02265752 58.61687617 -116.50412218 53.35171012 -109.66308594 48.36767578 C-107.72939448 46.95650056 -105.80482556 45.53326267 -103.87939453 44.11083984 C-92.84131405 36.00170749 -81.53240921 28.38128572 -69.93017578 21.10302734 C-69.18880371 20.63735352 -68.44743164 20.17167969 -67.68359375 19.69189453 C-59.85193403 14.81721218 -51.89465139 10.42122922 -43.49267578 6.60302734 C-42.78353027 6.2764917 -42.07438477 5.94995605 -41.34375 5.61352539 C-33.12636236 2.02140774 -24.71066476 0.82085927 -15.80517578 0.47802734 C-14.93916748 0.44298096 -14.07315918 0.40793457 -13.1809082 0.37182617 C-8.78808325 0.21589693 -4.39404653 0.11518745 0 0 Z " fill="#713131" transform="translate(1181.93017578125,55.89697265625)"/>
<path d="M0 0 C24.86407062 -0.90652258 24.86407062 -0.90652258 34.16455078 5.11914062 C35.12232422 5.7353125 36.08009766 6.35148438 37.06689453 6.98632812 C50.2172396 16.05918365 59.75869278 27.46657241 62.76318359 43.45117188 C71.43737107 101.11024776 38.19492848 172.26109318 13.16455078 222.11914062 C12.67873535 223.08803223 12.19291992 224.05692383 11.69238281 225.05517578 C4.10467737 240.09115339 -4.18196692 254.67393839 -12.83544922 269.11914062 C-13.38346191 270.04001465 -13.93147461 270.96088867 -14.49609375 271.90966797 C-21.25596787 283.23301586 -28.47688116 294.0100818 -36.41357422 304.54101562 C-39.76719323 308.99356064 -42.96509232 313.54375192 -46.14794922 318.11914062 C-53.77263408 328.9984306 -62.24528598 338.93756793 -71.37304688 348.57324219 C-72.74754192 350.02621425 -74.11027539 351.490287 -75.47216797 352.95507812 C-86.370019 364.34906366 -98.85750629 370.02820919 -114.71044922 370.55664062 C-117.01513672 370.55273438 -117.01513672 370.55273438 -118.83544922 370.11914062 C-119.49544922 369.12914062 -120.15544922 368.13914062 -120.83544922 367.11914062 C-122.05232422 367.05726563 -123.26919922 366.99539063 -124.52294922 366.93164062 C-128.12608821 366.55509637 -129.8374559 365.68671175 -132.33544922 363.05664062 C-136.90209716 357.29596088 -139.82965974 350.50335185 -142.95141602 343.89331055 C-143.73872633 342.3132542 -144.64160573 340.79199861 -145.55810547 339.28320312 C-146.83544922 337.11914062 -146.83544922 337.11914062 -147.02294922 334.68164062 C-145.0822174 330.49374565 -141.9258526 328.15750217 -137.83544922 326.11914062 C-133.98427643 325.47116552 -130.37196343 325.35088352 -126.83544922 327.11914062 C-111.26628746 327.58889982 -99.31290042 314.85004363 -88.77685547 304.96289062 C-80.44975372 297.00184513 -73.29169406 288.12477996 -66.29492188 279.00683594 C-64.82919976 277.11105751 -63.34075839 275.23520184 -61.84716797 273.36132812 C-40.9131584 246.86888708 -23.97830291 217.21637009 -8.83544922 187.11914062 C-8.408125 186.27915527 -7.98080078 185.43916992 -7.54052734 184.57373047 C8.82758447 152.2269198 21.48562569 116.69796757 28.41455078 81.11914062 C28.57793945 80.28294189 28.74132812 79.44674316 28.90966797 78.58520508 C30.92467975 67.73572001 31.35111945 56.95683355 31.34985352 45.94702148 C31.35206518 43.79261209 31.37036751 41.63869608 31.38916016 39.484375 C31.39209083 38.09570484 31.39407781 36.7070323 31.39501953 35.31835938 C31.39912842 34.07916748 31.4032373 32.83997559 31.4074707 31.56323242 C31.16273013 28.09332761 30.41389945 25.35160207 29.16455078 22.11914062 C14.46807617 20.21142517 -0.24963916 29.49503007 -12.83544922 36.11914062 C-13.57134277 36.50618164 -14.30723633 36.89322266 -15.06542969 37.29199219 C-18.20687319 38.94650802 -21.34777167 40.60189962 -24.48266602 42.26879883 C-29.41962619 44.88476594 -34.39929682 47.38378268 -39.42626953 49.82177734 C-49.77642996 54.86523702 -59.35613614 60.5957868 -68.83544922 67.11914062 C-69.65609863 67.68213867 -70.47674805 68.24513672 -71.32226562 68.82519531 C-81.3260958 75.71023967 -91.17225714 82.76395506 -100.83544922 90.11914062 C-102.09750034 91.06314676 -103.36058951 92.00576614 -104.62451172 92.94726562 C-113.46915102 99.53833053 -122.21301722 106.23979503 -130.83544922 113.11914062 C-131.79064453 113.87839844 -132.74583984 114.63765625 -133.72998047 115.41992188 C-139.72294054 120.24686969 -145.41890104 125.32786133 -151.05810547 130.55664062 C-153.94909866 133.22399862 -156.89346564 135.81737666 -159.86279297 138.39648438 C-166.69835982 144.36576156 -173.37625596 150.51063635 -180.01782227 156.6940918 C-182.73510941 159.2154765 -185.48580028 161.67587682 -188.30761719 164.07983398 C-193.97933474 169.03735325 -199.24406659 174.40352396 -204.55419922 179.74023438 C-205.66355755 180.85146186 -206.77313989 181.96246575 -207.88293457 183.07325745 C-210.77847538 185.97258433 -213.67099829 188.87490335 -216.56286621 191.77789307 C-219.52427786 194.74960368 -222.48858476 197.71842329 -225.45263672 200.6875 C-231.24971732 206.49524883 -237.04360741 212.30616736 -242.83544922 218.11914062 C-243.49544922 217.45914063 -244.15544922 216.79914063 -244.83544922 216.11914062 C-248.55580271 219.8145562 -252.27269148 223.51341144 -255.98657227 227.21533203 C-257.24737137 228.47113883 -258.50907098 229.72604226 -259.77172852 230.97998047 C-269.63962666 240.73634573 -269.63962666 240.73634573 -278.83544922 251.11914062 C-279.3580835 251.75110352 -279.88071777 252.38306641 -280.41918945 253.03417969 C-281.96755777 254.92686847 -283.49802515 256.8325323 -285.02294922 258.74414062 C-285.53019531 259.37320312 -286.03744141 260.00226563 -286.56005859 260.65039062 C-288.82088469 263.47715633 -290.94757137 266.28794445 -292.95263672 269.30664062 C-294.72530025 271.95460275 -296.59635172 274.17531003 -298.77294922 276.49414062 C-302.37641615 280.46132198 -305.14320473 284.4918454 -307.83544922 289.11914062 C-306.82224609 287.96285156 -306.82224609 287.96285156 -305.78857422 286.78320312 C-304.88785578 285.76989488 -303.98679609 284.75688991 -303.08544922 283.74414062 C-302.64201172 283.23625 -302.19857422 282.72835938 -301.74169922 282.20507812 C-299.32120501 279.4998199 -297.24826533 277.44280295 -293.83544922 276.11914062 C-299.05663943 290.14176577 -310.19884046 302.85879736 -319.02294922 314.80664062 C-321.9283329 318.77453032 -324.63413451 322.84597817 -327.27294922 326.99414062 C-333.44867101 336.70224828 -339.8761439 346.19880358 -347.12231445 355.14550781 C-349.38820244 357.99900886 -351.23750112 360.76790054 -352.83544922 364.04882812 C-354.84212377 368.03299463 -356.53683258 371.03771685 -359.83544922 374.11914062 C-365.71738169 375.77773599 -371.87096102 374.92984776 -377.83544922 374.11914062 C-375.10401821 369.20382354 -372.17410208 364.54341036 -368.96044922 359.93164062 C-368.4928418 359.25601074 -368.02523438 358.58038086 -367.54345703 357.88427734 C-365.97825629 355.62632468 -364.40769369 353.37219398 -362.83544922 351.11914062 C-362.25311523 350.28463379 -361.67078125 349.45012695 -361.07080078 348.59033203 C-358.11642355 344.35994897 -355.15779441 340.13257179 -352.19482422 335.90820312 C-351.65003418 335.12936768 -351.10524414 334.35053223 -350.54394531 333.5480957 C-349.33630935 331.83120942 -348.11958517 330.12069866 -346.89648438 328.41479492 C-345.94974854 327.08702026 -345.94974854 327.08702026 -344.98388672 325.73242188 C-344.40815918 324.93102783 -343.83243164 324.12963379 -343.23925781 323.30395508 C-341.64421307 321.02334138 -341.64421307 321.02334138 -340.71044922 317.68164062 C-339.83544922 315.11914062 -339.83544922 315.11914062 -337.65185547 313.87695312 C-333.99021059 311.59159918 -331.63385442 308.73098665 -328.89794922 305.43164062 C-328.09973755 304.48454224 -328.09973755 304.48454224 -327.28540039 303.51831055 C-324.16607367 299.79379135 -321.16356873 296.00957694 -318.30029297 292.08398438 C-309.94681985 280.87919243 -300.54978004 270.2687321 -291.14794922 259.93164062 C-288.23189066 256.72501395 -285.47160065 253.44777619 -282.77294922 250.05664062 C-276.83131233 242.71023844 -270.23881384 235.97000437 -263.73339844 229.12597656 C-261.13495098 226.3784543 -258.57254568 223.59945671 -256.02294922 220.80664062 C-255.16443359 219.86691406 -254.30591797 218.9271875 -253.42138672 217.95898438 C-252.09170148 216.49874092 -250.76210732 215.03841343 -249.43408203 213.57666016 C-244.3242399 207.95374674 -239.18331083 202.4029782 -233.76074219 197.0769043 C-232.08162855 195.36947185 -230.54072773 193.62839864 -229.00341797 191.79492188 C-223.74981258 185.75195077 -218.02499735 180.15982399 -212.35668945 174.51000977 C-210.40249298 172.56117193 -208.45369775 170.60704791 -206.50537109 168.65234375 C-200.9613995 163.10553996 -195.43962798 157.59371424 -189.46166992 152.50952148 C-183.18492764 147.14305289 -177.30642035 141.47572427 -173.28466797 134.22460938 C-170.53521343 130.23011882 -166.79008681 127.03206968 -163.26123047 123.73242188 C-160.83020637 121.11349253 -160.12841288 119.36646858 -158.83544922 116.11914062 C-157.02304161 113.99500994 -155.2154127 111.98883424 -153.27294922 109.99414062 C-149.32085218 106.05149888 -149.32085218 106.05149888 -146.83544922 101.11914062 C-154.22105958 108.30881648 -154.22105958 108.30881648 -161.14794922 115.93164062 C-164.535605 119.87572295 -168.1307078 123.59912778 -171.77294922 127.30664062 C-172.63303589 128.19863159 -172.63303589 128.19863159 -173.51049805 129.10864258 C-177.06276848 132.68902992 -180.62798626 135.34180447 -184.95874023 137.91040039 C-187.805022 139.74361765 -190.00965153 142.04925089 -192.33544922 144.49414062 C-195.95900774 148.23649414 -199.64718256 151.7947977 -203.60888672 155.17773438 C-207.11757976 158.23706848 -210.51217749 161.41942806 -213.91699219 164.59350586 C-216.81268798 167.28403375 -219.7450816 169.91557645 -222.73779297 172.49804688 C-226.9662143 176.18210576 -230.94505184 180.08073899 -234.89794922 184.05664062 C-235.56632813 184.72115234 -236.23470703 185.38566406 -236.92333984 186.0703125 C-240.86107575 190.01570193 -244.58180461 194.08292036 -248.22094727 198.30395508 C-250.41314813 200.76864787 -252.80083212 202.99371745 -255.21044922 205.24414062 C-259.97060871 209.9190631 -263.52635373 214.79745993 -266.93066406 220.52392578 C-268.7256438 223.52917635 -269.86240416 225.13711058 -272.83544922 227.11914062 C-274.15544922 227.11914062 -275.47544922 227.11914062 -276.83544922 227.11914062 C-276.32758855 222.42788531 -274.41847837 219.8437692 -271.52294922 216.18164062 C-270.85960571 215.34064819 -270.85960571 215.34064819 -270.18286133 214.48266602 C-262.40711142 204.71118995 -254.13952191 195.38923375 -245.65966797 186.22851562 C-240.56039065 180.66566764 -235.71420724 174.87488307 -230.83544922 169.11914062 C-235.58244652 172.63815021 -239.45600239 176.80647648 -243.46044922 181.11914062 C-244.16903076 181.87735107 -244.8776123 182.63556152 -245.60766602 183.41674805 C-251.39072625 189.61414839 -257.12371246 195.85604467 -262.83544922 202.11914062 C-263.79195142 203.15999163 -264.7489955 204.2003449 -265.70654297 205.24023438 C-270.23158073 210.15629649 -274.72468092 215.09248356 -279.10498047 220.13867188 C-283.43560633 225.0949412 -287.85908776 229.97159826 -292.31591797 234.81445312 C-297.31954961 240.26026617 -302.17273931 245.78111098 -306.78466797 251.56445312 C-308.06064803 253.15395971 -309.37077232 254.71737799 -310.72998047 256.23632812 C-313.92519259 259.88247011 -313.92519259 259.88247011 -314.91748047 264.48242188 C-314.84916016 265.31128906 -314.78083984 266.14015625 -314.71044922 266.99414062 C-314.44373118 271.48047484 -315.35117201 273.48269399 -318.14794922 276.99414062 C-319.68637032 278.72418962 -321.25078462 280.43134706 -322.83544922 282.11914062 C-323.66818359 283.05628906 -324.50091797 283.9934375 -325.35888672 284.95898438 C-328.13772653 288.05971326 -330.96590564 291.10262706 -333.83544922 294.11914062 C-334.39022949 294.70260254 -334.94500977 295.28606445 -335.51660156 295.88720703 C-337.2368854 297.68390494 -338.97073945 299.46626085 -340.71044922 301.24414062 C-341.51325317 302.07909058 -341.51325317 302.07909058 -342.33227539 302.9309082 C-345.29129462 305.9149685 -347.78396609 307.90818072 -351.83544922 309.11914062 C-351.40398719 303.83176963 -349.71438977 301.2187621 -346.27294922 297.24414062 C-345.44666016 296.27734375 -344.62037109 295.31054688 -343.76904297 294.31445312 C-343.13095703 293.59 -342.49287109 292.86554688 -341.83544922 292.11914062 C-353.1603983 303.38490007 -362.10095876 315.46907623 -370.52294922 328.99414062 C-379.72242831 343.61158216 -379.72242831 343.61158216 -385.83544922 346.11914062 C-384.25506699 339.82921936 -380.69469686 334.80596459 -377.21044922 329.43164062 C-376.26093384 327.9538916 -376.26093384 327.9538916 -375.29223633 326.44628906 C-371.53270428 320.63098113 -367.69416766 314.92595134 -363.53466797 309.38867188 C-361.85950927 307.15127601 -360.28301984 304.86696042 -358.71044922 302.55664062 C-353.61871457 295.23945674 -348.01774864 288.29782255 -342.52197266 281.28320312 C-340.61161202 278.83192393 -338.72798701 276.36147961 -336.84887695 273.88623047 C-331.86704498 267.33358707 -326.63801092 261.03484473 -321.27392578 254.79589844 C-319.79588811 253.07302628 -318.32662856 251.34297665 -316.85888672 249.61132812 C-311.13694299 242.87511134 -305.29290228 236.27999637 -299.29248047 229.79101562 C-296.66962075 226.93881205 -294.11561577 224.03540621 -291.57373047 221.11132812 C-286.22241872 214.9783641 -280.81350062 208.95130575 -274.95263672 203.29882812 C-273.11464996 201.40658345 -271.40429031 199.47103867 -269.68701172 197.47070312 C-264.71285419 191.74493041 -259.26514139 186.50255014 -253.86279297 181.18554688 C-249.50985312 176.8745294 -245.32872557 172.49970128 -241.33691406 167.85205078 C-239.44166825 165.66465976 -237.4480346 163.59897522 -235.39794922 161.55664062 C-234.71861328 160.87472656 -234.03927734 160.1928125 -233.33935547 159.49023438 C-231.39547653 157.6494629 -229.43075216 155.91785221 -227.39404297 154.18554688 C-221.05091763 148.67219729 -215.24077844 142.59173967 -209.33544922 136.61914062 C-196.143491 123.27690787 -196.143491 123.27690787 -189.99902344 118.05126953 C-185.12989783 113.70301179 -180.57752661 109.00776346 -175.97094727 104.38500977 C-174.14500299 102.55368572 -172.3137483 100.72779374 -170.48193359 98.90234375 C-169.30387831 97.72362793 -168.12613313 96.54460208 -166.94873047 95.36523438 C-166.1391967 94.55873695 -166.1391967 94.55873695 -165.31330872 93.73594666 C-161.94297889 90.34496243 -158.86677349 86.81607226 -155.83544922 83.11914062 C-154.74521167 82.06126172 -153.62208751 81.03557994 -152.46044922 80.05664062 C-149.81390489 77.80584124 -147.1801852 75.54607184 -144.58154297 73.24023438 C-135.94087227 65.6052196 -126.99149093 58.51013848 -117.77246094 51.58886719 C-115.07084578 49.5389903 -112.42856701 47.41561731 -109.77294922 45.30664062 C-90.61409 30.5579339 -69.77053143 17.33889484 -47.83544922 7.11914062 C-46.92794922 6.68472656 -46.02044922 6.2503125 -45.08544922 5.80273438 C-36.84835205 2.31483854 -27.99703594 1.95979135 -19.17431641 1.29833984 C-17.21830333 1.14847412 -15.26469566 0.96763779 -13.31201172 0.77929688 C-8.87706803 0.37960442 -4.44730921 0.18686817 0 0 Z " fill="#703131" transform="translate(742.83544921875,184.880859375)"/>
<path d="M0 0 C7.08000721 -0.07647781 14.15990666 -0.1287786 21.24023438 -0.16479492 C23.64554831 -0.17982006 26.05083513 -0.20024596 28.45605469 -0.22631836 C31.92650064 -0.262978 35.39658227 -0.27978971 38.8671875 -0.29296875 C39.93113739 -0.30845261 40.99508728 -0.32393646 42.09127808 -0.33988953 C55.28713366 -0.34282012 67.05986009 4.09235364 76.8125 13.125 C86.35178267 23.19519427 88.48073995 33.99004634 88.27734375 47.2421875 C88.05907746 52.80852074 86.90514176 57.22144907 84 62 C83.57589844 62.70125 83.15179687 63.4025 82.71484375 64.125 C76.50685718 73.25540921 67.45171587 78.80238276 57 82 C50.33413138 83.06935282 43.80384147 83.13004467 37.0625 83.09765625 C35.94182129 83.0962413 34.82114258 83.09482635 33.66650391 83.09336853 C30.11097467 83.08780139 26.55550998 83.07525498 23 83.0625 C20.579428 83.05748075 18.158855 83.05291859 15.73828125 83.04882812 C9.82549906 83.03784272 3.91275415 83.02113752 -2 83 C-2 81.35 -2 79.7 -2 78 C2.455 77.505 2.455 77.505 7 77 C8.11250516 73.66248451 8.13370528 71.14935764 8.14526367 67.63256836 C8.15164352 66.31788071 8.15802338 65.00319305 8.16459656 63.64866638 C8.16612489 62.21239254 8.16723903 60.77611822 8.16796875 59.33984375 C8.1711815 57.86918607 8.17454559 56.39852871 8.17805481 54.9278717 C8.18404113 51.84700784 8.18589512 48.76617201 8.18530273 45.68530273 C8.18520091 41.73173492 8.19887619 37.77834588 8.21607494 33.82482052 C8.22717337 30.78885567 8.22922264 27.75293443 8.22869301 24.71695137 C8.2298755 23.2588597 8.23431229 21.80076699 8.24202538 20.34269524 C8.25178525 18.30783258 8.24769339 16.27291757 8.24291992 14.23803711 C8.24434494 13.07904404 8.24576996 11.92005096 8.24723816 10.72593689 C8.27999253 7.85309592 8.27999253 7.85309592 6 6 C4.01643517 5.28591666 2.01684563 4.61382258 0 4 C0 2.68 0 1.36 0 0 Z  M 38.20776367 5.68310547 C 44.84179429 5.77895074 50.2835596 6.38602774 56 10 C 56.9571289 10.58394531 56.9571289 10.58394531 57.93359375 11.1796875 C 64.08308791 15.6496424 67.65894702 23.1315713 69.64453125 30.33984375 C 71.26719806 42.4830976 71.10508939 55.76043863 64.4921875 66.43359375 C 60.58657766 71.38372715 56.19389421 74.64799035 50 76 C 47.10232315 76.32220383 44.22674947 76.44763702 41.3125 76.5 C 40.58756347 76.51869141 39.86262695 76.53738281 39.11572265 76.55664063 C 34.01344415 76.49574586 30.99956925 75.40593004 27 72 C 24.82528312 68.66247332 24.75184962 65.89599475 24.75708008 61.9621582 C 24.75400345 60.74442215 24.75092682 59.5266861 24.74775696 58.27204895 C 24.75494247 56.96153061 24.76212799 55.65101227 24.76953125 54.30078125 C 24.77072375 52.94125919 24.77117606 51.5817363 24.7709198 50.22221375 C 24.77248155 47.37847712 24.78075003 44.53486694 24.79418945 41.69116211 C 24.81122745 38.03911364 24.81500225 34.38720339 24.81424427 30.73511982 C 24.81451556 27.93080822 24.81998928 25.12652707 24.82724571 22.32222557 C 24.83198924 20.31852463 24.83370985 18.31481729 24.83540344 16.31111145 C 24.84178329 15.10283188 24.84816315 13.89455231 24.85473633 12.6496582 C 24.85854812 11.58028519 24.86235992 10.51091217 24.86628723 9.40913391 C 25.19033239 3.57073729 33.70876057 5.69024234 38.20776367 5.68310547 Z" fill-rule="evenodd" fill="#713232" transform="translate(483,606)"/>

<path d="M0 0 C6.38627691 -0.05098432 12.77250072 -0.08585232 19.15893555 -0.10986328 C21.32855185 -0.11988013 23.4981548 -0.13349742 25.66772461 -0.15087891 C28.79804801 -0.17531771 31.92819188 -0.18652657 35.05859375 -0.1953125 C36.01833603 -0.20563507 36.97807831 -0.21595764 37.96690369 -0.22659302 C47.15956296 -0.22810198 57.62525014 0.79862917 64.57421875 7.5234375 C70.04418812 13.94947601 69.61234773 19.80534662 69 28 C67.7482153 33.39620702 65.09354837 36.22516321 60.625 39.375 C57.20550341 41.45495826 53.89975167 43.00006368 50 44 C51.56232021 47.67956291 53.83584082 50.16515793 56.5625 53.0625 C60.10116826 56.87651132 63.44705598 60.73688999 66.6875 64.8125 C72.5318901 71.98982118 76.71767618 76.37152214 86 78 C86 79.65 86 81.3 86 83 C64.04085873 85.20536569 64.04085873 85.20536569 57.86621094 81.83544922 C54.46952369 78.76640703 52.32424346 74.94120601 50.15087891 70.95458984 C48.23063501 67.69335254 45.74829657 64.95231799 43.25 62.125 C42.33454304 61.05848704 41.42043025 59.99081849 40.5078125 58.921875 C39.68023438 57.95765625 38.85265625 56.9934375 38 56 C37.31679687 55.18015625 36.63359375 54.3603125 35.9296875 53.515625 C35.33414062 52.80921875 34.73859375 52.1028125 34.125 51.375 C33.63257813 50.78460937 33.14015625 50.19421875 32.6328125 49.5859375 C30.62819225 47.51808115 30.62819225 47.51808115 26 45 C26.495 60.345 26.495 60.345 27 76 C32.09641312 77.69880437 35.79813078 78.4618756 41 79 C41 80.32 41 81.64 41 83 C26.81 83 12.62 83 -2 83 C-2 81.68 -2 80.36 -2 79 C-1.37351562 78.82984375 -0.74703125 78.6596875 -0.1015625 78.484375 C0.71570312 78.24203125 1.53296875 77.9996875 2.375 77.75 C3.18710938 77.51796875 3.99921875 77.2859375 4.8359375 77.046875 C7.58864414 75.71524074 7.92310298 74.83283282 9 72 C9.29572221 69.11833356 9.29572221 69.11833356 9.24291992 65.91796875 C9.24599655 64.68989502 9.24907318 63.46182129 9.25224304 62.1965332 C9.24534461 60.8601869 9.23807759 59.52384245 9.23046875 58.1875 C9.2292759 56.81274458 9.22882401 55.43798834 9.2290802 54.06323242 C9.22751784 51.18500652 9.21924756 48.30690544 9.20581055 45.42871094 C9.18882112 41.74332827 9.1849964 38.05808265 9.18575573 34.37266541 C9.18548352 31.53477679 9.17999404 28.69691799 9.17275429 25.85903931 C9.16957707 24.5002973 9.16760243 23.14155192 9.16686058 21.7828064 C9.164687 19.88253562 9.15513547 17.98227763 9.14526367 16.08203125 C9.14145187 15.00155518 9.13764008 13.9210791 9.13371277 12.80786133 C9.08094243 9.76811235 9.08094243 9.76811235 8 6 C5.36 5.34 2.72 4.68 0 4 C0 2.68 0 1.36 0 0 Z  M 26 6 C 28.68125 5.9175 31.3625 5.835 34.125 5.75 C 34.95789551 5.71358398 35.79079102 5.67716797 36.64892578 5.63964844 C 41.90982973 5.5618207 44.8449007 6.50195706 49 10 C 52.46432888 14.64949402 53.61011064 18.06267057 53.32421875 23.859375 C 52.54931132 28.97563127 49.98686796 32.81050563 46 36 C 40 38 40 38 26 38 C 26 27.44 26 16.88 26 6 Z" fill-rule="evenodd" fill="#713333" transform="translate(1398,606)"/>
<path d="M0 0 C9.32043079 6.81830172 15.73551206 15.42528617 19.390625 26.390625 C20.60447057 39.59893909 19.70152879 50.85510031 11.140625 61.44921875 C2.12978288 71.44562173 -9.00235678 77.95635327 -22.6875 78.7265625 C-37.29643187 79.04339522 -49.59778003 75.58453271 -60.67578125 65.51171875 C-68.89533502 56.72407487 -73.14943899 45.85319449 -72.91796875 33.8984375 C-71.81010594 21.30526282 -66.43292292 11.22323879 -56.859375 3.078125 C-40.42374485 -9.33655588 -17.69122096 -10.91135185 0 0 Z M-45.359375 7.953125 C-49.17072611 12.5824373 -50.90237533 17.70980352 -52.609375 23.390625 C-52.939375 24.380625 -53.269375 25.370625 -53.609375 26.390625 C-54.34272757 39.35122133 -54.27241349 52.86772514 -45.609375 63.390625 C-40.22583841 68.94876277 -35.01565221 71.55886533 -27.296875 71.828125 C-18.90565003 71.62719487 -12.8024417 69.04130528 -6.609375 63.390625 C-4.78420692 60.49723736 -4.78420692 60.49723736 -3.359375 57.328125 C-2.85921875 56.28527344 -2.3590625 55.24242187 -1.84375 54.16796875 C0.70520388 48.43282253 0.60954439 43.51705187 0.640625 37.328125 C0.66125 36.32845703 0.681875 35.32878906 0.703125 34.29882812 C0.75070806 25.14503674 -0.65333015 16.63446333 -6.609375 9.390625 C-12.81995254 3.21918975 -17.44030081 0.11465007 -26.421875 0.015625 C-34.82541424 0.17352031 -39.51917741 1.96538558 -45.359375 7.953125 Z " fill="#723333" transform="translate(979.609375,611.609375)"/>

<path d="M0 0 C22.77 0 45.54 0 69 0 C69 6.93 69 13.86 69 21 C67.35 21 65.7 21 64 21 C63.7525 19.7625 63.505 18.525 63.25 17.25 C62.10514192 12.68669244 60.26548797 10.41895105 56.26074219 7.91064453 C53.30299605 6.71924139 50.88820427 6.77463958 47.703125 6.8046875 C46.07358887 6.81218018 46.07358887 6.81218018 44.41113281 6.81982422 C43.03795898 6.83803223 41.66478516 6.85624023 40.25 6.875 C35.8775 6.91625 31.505 6.9575 27 7 C26.67 16.9 26.34 26.8 26 37 C28.5575 36.690625 31.115 36.38125 33.75 36.0625 C34.54889648 35.96718994 35.34779297 35.87187988 36.17089844 35.77368164 C39.53515275 35.35971735 42.70519221 34.82370195 46 34 C46.66 30.7 47.32 27.4 48 24 C49.65 24 51.3 24 53 24 C53 34.56 53 45.12 53 56 C51.35 55.67 49.7 55.34 48 55 C47.855625 53.7625 47.71125 52.525 47.5625 51.25 C46.88327413 48.58498181 46.42431292 47.33623011 44.25 45.61328125 C39.97136724 43.55800944 35.89789367 42.76826153 31.18359375 42.40234375 C29.72070923 42.28427368 29.72070923 42.28427368 28.22827148 42.16381836 C27.49294189 42.1097583 26.7576123 42.05569824 26 42 C26.08097907 46.39658178 26.19381799 50.7917871 26.3125 55.1875 C26.33505859 56.43337891 26.35761719 57.67925781 26.38085938 58.96289062 C26.4340332 60.7659668 26.4340332 60.7659668 26.48828125 62.60546875 C26.51446533 63.71043701 26.54064941 64.81540527 26.56762695 65.95385742 C27.04815653 69.33927102 27.99076804 71.25726328 30 74 C34.47559104 76.78144076 39.70416276 76.36748221 44.8125 76.375 C45.67681641 76.39949219 46.54113281 76.42398438 47.43164062 76.44921875 C53.41867113 76.47632983 58.03649109 75.46831365 63 72 C66.56287997 67.76306166 68.21731109 63.16979785 70 58 C71.32 58 72.64 58 74 58 C73.67 66.25 73.34 74.5 73 83 C48.58 83 24.16 83 -1 83 C-1 81.35 -1 79.7 -1 78 C-0.36191406 77.87882813 0.27617188 77.75765625 0.93359375 77.6328125 C1.75988281 77.46523438 2.58617187 77.29765625 3.4375 77.125 C4.26121094 76.96257812 5.08492187 76.80015625 5.93359375 76.6328125 C6.95646484 76.31957031 6.95646484 76.31957031 8 76 C9.40034018 73.19931963 9.13498646 70.87905422 9.14526367 67.74609375 C9.15164352 66.43133057 9.15802338 65.11656738 9.16459656 63.76196289 C9.166125 62.32047563 9.16723908 60.87898788 9.16796875 59.4375 C9.17118055 57.96541308 9.17454456 56.49332648 9.17805481 55.02124023 C9.18404683 51.93440002 9.18589459 48.84758781 9.18530273 45.76074219 C9.185201 41.79929862 9.19886468 37.83803383 9.21607494 33.87663269 C9.22717487 30.83637664 9.22922258 27.79616413 9.22869301 24.75588989 C9.22987572 23.29500715 9.23431373 21.83412337 9.24202538 20.3732605 C9.25178623 18.33349908 9.24769314 16.29368544 9.24291992 14.25390625 C9.24434494 13.09189697 9.24576996 11.9298877 9.24723816 10.73266602 C9.28088633 7.8538763 9.28088633 7.8538763 7 6 C4.68234271 5.28072705 2.34904126 4.6090107 0 4 C0 2.68 0 1.36 0 0 Z " fill="#723434" transform="translate(1079,606)"/>
<path d="M0 0 C12.54 0 25.08 0 38 0 C38 1.32 38 2.64 38 4 C37.37351562 4.10957031 36.74703125 4.21914063 36.1015625 4.33203125 C35.28429687 4.49058594 34.46703125 4.64914062 33.625 4.8125 C32.40683594 5.03873047 32.40683594 5.03873047 31.1640625 5.26953125 C28.64179359 5.87544942 28.64179359 5.87544942 27 9 C26.68335169 11.33909043 26.68335169 11.33909043 26.70947266 13.97119141 C26.69671295 14.98299469 26.68395325 15.99479797 26.67080688 17.03726196 C26.66858124 18.13098114 26.66635559 19.22470032 26.6640625 20.3515625 C26.6574057 21.48016693 26.6507489 22.60877136 26.64389038 23.77157593 C26.63375541 26.16394419 26.62907362 28.55634076 26.62939453 30.94873047 C26.62504184 34.59000098 26.58878602 38.23003942 26.55078125 41.87109375 C26.54490904 44.19791254 26.54094235 46.52473706 26.5390625 48.8515625 C26.52469147 49.93313629 26.51032043 51.01471008 26.49551392 52.12905884 C26.53897357 59.40887137 27.40042558 66.23285628 32.63101196 71.7069397 C37.83835101 76.06698556 44.74012083 75.82437837 51.19921875 75.4921875 C57.34082857 74.69687112 60.67719677 72.40023 64.875 68.0625 C68.31424444 61.75721852 68.29320092 55.84015252 68.265625 48.8359375 C68.26753845 47.76630768 68.2694519 46.69667786 68.27142334 45.59463501 C68.27278084 43.34043135 68.26911489 41.08621977 68.26074219 38.83203125 C68.25001563 35.3800304 68.26066329 31.92854746 68.2734375 28.4765625 C68.27211624 26.28385302 68.26955454 24.09114386 68.265625 21.8984375 C68.26967346 20.86608978 68.27372192 19.83374207 68.27789307 18.77011108 C68.27158875 17.80876251 68.26528442 16.84741394 68.25878906 15.85693359 C68.25719788 15.01343353 68.25560669 14.16993347 68.25396729 13.3008728 C67.9742329 10.76655726 67.33434717 9.16124608 66 7 C62.8999494 4.89639423 59.66708848 4.50005752 56 4 C56 2.68 56 1.36 56 0 C67.55 0 79.1 0 91 0 C91 1.32 91 2.64 91 4 C89.741875 4.2475 88.48375 4.495 87.1875 4.75 C84.35821288 5.45982115 83.19841501 5.80798547 81.0625 7.875 C79.31994956 11.36010088 78.8760804 14.50784312 78.8581543 18.37866211 C78.85111984 19.23733383 78.84408539 20.09600555 78.83683777 20.98069763 C78.83059135 22.36503746 78.83059135 22.36503746 78.82421875 23.77734375 C78.80099776 25.75586975 78.77687954 27.73438538 78.75195312 29.71289062 C78.71704941 32.8129752 78.68760835 35.91268358 78.67407227 39.01293945 C78.52637086 67.34206866 78.52637086 67.34206866 70 77 C67.88671875 78.51171875 67.88671875 78.51171875 65.6875 79.6875 C64.96949219 80.08324219 64.25148438 80.47898437 63.51171875 80.88671875 C52.52757619 85.75527338 36.741896 86.01858513 25.328125 82.16015625 C17.83199981 78.42467105 13.84118704 73.56205192 10.85673523 65.88774109 C9.37596911 60.89662011 9.43655161 55.99643744 9.4609375 50.82421875 C9.44914459 49.69603226 9.43735168 48.56784576 9.42520142 47.4054718 C9.39015228 43.83267134 9.38078968 40.26045787 9.375 36.6875 C9.35863627 33.09686522 9.33659384 29.50648927 9.30337524 25.91596985 C9.28380059 23.69011621 9.27440434 21.46414372 9.27645874 19.23820496 C9.26949982 18.22978043 9.26254089 17.2213559 9.25537109 16.18237305 C9.25348282 14.85860909 9.25348282 14.85860909 9.2515564 13.50810242 C8.96292612 10.63036083 8.36772052 8.55120613 7 6 C3.46485707 4.62032476 3.46485707 4.62032476 0 4 C0 2.68 0 1.36 0 0 Z " fill="#713232" transform="translate(315,606)"/>
<path d="M0 0 C12.87 0 25.74 0 39 0 C39 1.32 39 2.64 39 4 C38.38511719 4.07476563 37.77023437 4.14953125 37.13671875 4.2265625 C36.32847656 4.35804688 35.52023437 4.48953125 34.6875 4.625 C33.88699219 4.74101563 33.08648438 4.85703125 32.26171875 4.9765625 C28.80369698 6.54133228 28.36067053 8.48733171 27 12 C26.56225008 15.42281074 26.55564814 18.81430816 26.56640625 22.26171875 C26.55854347 23.74137871 26.55854347 23.74137871 26.55052185 25.25093079 C26.54411361 27.33451398 26.54542309 29.41813341 26.55395508 31.50170898 C26.56242628 34.66001378 26.53374881 37.81648477 26.50195312 40.97460938 C25.96545016 56.80910006 25.96545016 56.80910006 32.48291016 70.71020508 C37.97625939 75.63044601 43.46688512 75.27991283 50.47265625 75.21484375 C56.10949112 74.87151494 60.05112828 73.7908551 64.3125 69.875 C68.58830257 62.59029933 69.45201281 55.56315884 69.3984375 47.234375 C69.40130768 46.23794983 69.40417786 45.24152466 69.40713501 44.21490479 C69.409164 42.12405829 69.40371631 40.03319231 69.39111328 37.94238281 C69.37497483 34.7450132 69.39103697 31.54889449 69.41015625 28.3515625 C69.40817494 26.31249722 69.4043336 24.27343272 69.3984375 22.234375 C69.40451019 21.28222107 69.41058289 20.33006714 69.4168396 19.34906006 C69.36491801 14.45405451 69.28265381 10.92321999 66 7 C63.77142754 5.77828284 63.77142754 5.77828284 61.3125 5.1875 C60.50425781 4.95417969 59.69601562 4.72085938 58.86328125 4.48046875 C58.24839844 4.32191406 57.63351562 4.16335938 57 4 C57 2.68 57 1.36 57 0 C68.22 0 79.44 0 91 0 C91 1.32 91 2.64 91 4 C88.02148438 4.48828125 88.02148438 4.48828125 85.04296875 4.9765625 C81.79704404 6.60262803 81.30055117 8.63935025 80 12 C79.59307891 15.54599648 79.63017831 19.06311841 79.6640625 22.62890625 C79.65154104 24.73763323 79.63850353 26.8463572 79.625 28.95507812 C79.62108879 32.25051803 79.62492473 35.54565406 79.63964844 38.84106445 C79.71744762 67.58137943 79.71744762 67.58137943 70.375 77.0625 C58.74465976 85.72064218 44.73209384 85.23756119 30.9375 83.375 C23.69438068 81.77283536 18.06445484 78.09942227 14 71.875 C11.51333399 67.57514002 10.87863578 63.79172955 10.82641602 58.85180664 C10.81292618 57.82716812 10.79943634 56.8025296 10.78553772 55.74684143 C10.77509933 54.64573532 10.76466095 53.54462921 10.75390625 52.41015625 C10.72097522 50.07616802 10.68776345 47.74218374 10.65429688 45.40820312 C10.60684419 41.73025153 10.56239147 38.05231678 10.52319336 34.37426758 C10.48348483 30.82356379 10.43194562 27.27318241 10.37890625 23.72265625 C10.3704921 22.62357437 10.36207794 21.52449249 10.35340881 20.3921051 C10.33676682 19.36431442 10.32012482 18.33652374 10.30297852 17.27758789 C10.29267105 16.37698135 10.28236359 15.47637482 10.27174377 14.54847717 C9.84880385 10.58204687 8.82740813 7.82740813 6 5 C4.01178687 4.60235737 2.01055661 4.26224651 0 4 C0 2.68 0 1.36 0 0 Z " fill="#703131" transform="translate(1230,606)"/>
<path d="M0 0 C0.77472656 0.38414062 1.54945313 0.76828125 2.34765625 1.1640625 C2.89292969 1.43992187 3.43820312 1.71578125 4 2 C4.33 0.02 4.66 -1.96 5 -4 C6.65 -4 8.3 -4 10 -4 C10.12224626 5.0598059 9.83930594 13.97746114 9 23 C7.35 23 5.7 23 4 23 C3.79246094 22.443125 3.58492187 21.88625 3.37109375 21.3125 C0.50998722 14.22557504 -3.3649799 7.27773059 -10.625 4 C-17.20557498 2.0742891 -24.41088892 1.6723207 -30.8828125 4.06640625 C-37.92497101 7.9238274 -41.22737654 12.74570369 -44.25 20 C-47.98547478 34.94189914 -47.54436669 50.47376247 -39.87109375 63.98828125 C-36.68909797 68.45637985 -32.16875516 70.65940068 -27 72 C-17.20652939 73.35565942 -9.02312223 71.95933584 -1 66 C3.24656908 61.35820568 5.76839443 55.82697011 8 50 C9.65 50 11.3 50 13 50 C13 59.57 13 69.14 13 79 C11.02 79 9.04 79 7 79 C7 76.36 7 73.72 7 71 C5.92621094 71.56589844 4.85242188 72.13179687 3.74609375 72.71484375 C2.31017328 73.45626674 0.87395963 74.19712213 -0.5625 74.9375 C-1.26697266 75.31068359 -1.97144531 75.68386719 -2.69726562 76.06835938 C-13.35163059 81.518288 -27.96786664 81.9140469 -39.4375 78.4375 C-50.70458741 74.00783687 -58.39220137 67.13628178 -63.31640625 56.03125 C-67.39216568 44.55663809 -67.7413699 32.16869163 -63.32421875 20.74609375 C-57.37170052 8.40208101 -48.74532531 0.78939243 -36 -4 C-23.93651659 -7.43830186 -11.01766645 -5.53398771 0 0 Z " fill="#723434" transform="translate(814,610)"/>
<path d="M0 0 C1.20690568 0.58628142 2.41506028 1.17000596 3.625 1.75 C4.800625 2.36875 4.800625 2.36875 6 3 C6.66 1.02 7.32 -0.96 8 -3 C9.65 -3 11.3 -3 13 -3 C12.34 5.91 11.68 14.82 11 24 C9.35 24 7.7 24 6 24 C5.85304688 23.43152344 5.70609375 22.86304688 5.5546875 22.27734375 C3.42122269 14.93282982 0.12114204 9.61741783 -6.5 5.5625 C-12.90468071 2.71734376 -20.78069099 2.87173541 -27.46875 4.66015625 C-34.34016116 7.71264851 -38.46493194 13.07280953 -41.140625 19.96484375 C-43.32348032 26.20046481 -43.59657459 31.94097543 -43.5 38.5 C-43.51546875 39.55058594 -43.5309375 40.60117187 -43.546875 41.68359375 C-43.49658517 51.85471245 -41.12383644 60.95574591 -33.90234375 68.40625 C-28.33348274 73.07174341 -22.18706673 73.56374895 -15.09375 73.33984375 C-8.01831619 72.56261807 -2.04446242 70.61136051 2.9375 65.375 C6.35144902 61.02549764 8.27863323 56.2175589 10 51 C11.65 51 13.3 51 15 51 C15 60.57 15 70.14 15 80 C13.35 80 11.7 80 10 80 C9.505 76.04 9.505 76.04 9 72 C8.52691406 72.32613281 8.05382812 72.65226563 7.56640625 72.98828125 C-4.46703016 80.94020122 -18.7651454 82.77709496 -32.9140625 80.5390625 C-43.2549376 77.74866763 -51.89837316 71.8071981 -58 63 C-63.8589813 51.43488038 -64.69203613 38.31158735 -62.38671875 25.625 C-58.27961413 13.17703533 -49.83387563 4.87386241 -38.62109375 -1.3125 C-27.18942829 -6.46479993 -10.91152845 -6.18763503 0 0 Z " fill="#723333" transform="translate(122,609)"/>
<path d="M0 0 C5.79664417 3.42823918 9.47608198 7.64015954 11.65625 14.05078125 C13.43820384 30.41235742 6.01113646 44.44995566 -3.95410156 56.8894043 C-10.53324368 64.86267683 -17.60984277 72.42226326 -26.34375 78.05078125 C-21.18452351 83.21000774 -11.45104881 83.72813086 -4.46875 84.67578125 C-3.57905518 84.80057861 -2.68936035 84.92537598 -1.77270508 85.05395508 C7.67443534 86.30576556 17.13777276 86.75428733 26.65625 87.05078125 C26.65625 87.71078125 26.65625 88.37078125 26.65625 89.05078125 C7.9101223 89.4189447 -9.05995843 89.51596309 -26.85546875 82.72265625 C-31.06107292 81.5870771 -34.04261191 83.28390162 -37.80078125 85.1953125 C-53.97406511 93.26372759 -70.87882054 99.90961518 -89.34375 99.05078125 C-89.01375 98.06078125 -88.68375 97.07078125 -88.34375 96.05078125 C-87.66908691 95.94531982 -86.99442383 95.8398584 -86.29931641 95.73120117 C-83.1879587 95.2406766 -80.07839521 94.73954293 -76.96875 94.23828125 C-75.90785156 94.07263672 -74.84695312 93.90699219 -73.75390625 93.73632812 C-64.1124944 92.16885933 -55.27774366 89.78872148 -46.46875 85.55078125 C-45.51355469 85.10798828 -45.51355469 85.10798828 -44.5390625 84.65625 C-41.19592632 83.07522518 -38.20090504 81.40542158 -35.34375 79.05078125 C-36.01019531 78.64988281 -36.67664063 78.24898437 -37.36328125 77.8359375 C-54.51061731 67.25974841 -72.65172529 52.65560948 -79.40625 32.86328125 C-81.19102143 25.29039694 -81.64957594 18.66522726 -77.84375 11.67578125 C-74.01482016 5.96867966 -69.12001932 2.38786121 -62.34375 1.05078125 C-54.18957634 0.01673749 -47.44779468 2.02548805 -40.34375 6.05078125 C-37.73052317 8.1836679 -35.47858391 10.44237503 -33.34375 13.05078125 C-32.68375 12.34953125 -32.02375 11.64828125 -31.34375 10.92578125 C-23.07382706 2.70258104 -12.01494389 -4.86605228 0 0 Z M-30.04296875 13.76953125 C-31.73694214 16.74034344 -31.21495391 17.7992388 -30.34375 21.05078125 C-30.25237918 23.44523418 -30.21370007 25.84209095 -30.21875 28.23828125 C-30.21488281 30.08486328 -30.21488281 30.08486328 -30.2109375 31.96875 C-30.34375 35.05078125 -30.34375 35.05078125 -31.34375 37.05078125 C-32.99375 37.05078125 -34.64375 37.05078125 -36.34375 37.05078125 C-38.25061652 31.33018168 -37.82847381 26.91493973 -35.40625 21.55078125 C-34.49096627 19.33608767 -34.49096627 19.33608767 -34.34375 17.05078125 C-37.3556979 10.88501833 -43.13389536 7.44022532 -49.34375 5.05078125 C-55.60781099 2.96276092 -62.2502637 3.63638102 -68.34375 6.05078125 C-72.83005977 9.15668801 -75.66391928 11.82464122 -77.34375 17.05078125 C-78.76997133 30.22131897 -74.97896651 38.75535893 -66.94921875 48.97265625 C-58.61174752 58.9865286 -49.21037672 66.90132772 -38.34375 74.05078125 C-37.08884766 74.96150391 -37.08884766 74.96150391 -35.80859375 75.890625 C-32.38077033 77.50403793 -30.9271636 77.29563957 -27.34375 76.05078125 C-24.65307574 74.11409538 -22.32702016 71.8745694 -19.96875 69.55078125 C-19.30609131 68.91221191 -18.64343262 68.27364258 -17.96069336 67.61572266 C-5.62594349 55.62785449 8.36386738 40.96221385 9.19506836 22.86328125 C9.26740558 16.37232041 9.10589278 11.07089105 4.65625 6.05078125 C-0.22947578 2.16214236 -4.29077274 1.34075348 -10.5078125 1.61328125 C-18.94980574 2.91562732 -24.44953798 7.60046585 -30.04296875 13.76953125 Z " fill="#7C4242" transform="translate(265.34375,598.94921875)"/>
<path d="M0 0 C1.03739801 6.57018738 -2.4206968 10.83728758 -6 16 C-8.44624338 19.34767959 -10.9465491 22.65393509 -13.45605469 25.9543457 C-18.68814998 32.84816098 -23.82026706 39.86939496 -27.9375 47.5 C-30.62388349 52.32405885 -34.10299757 56.60660829 -37.45410156 60.97998047 C-39.27450917 63.35870007 -41.08655745 65.74368501 -42.8984375 68.12890625 C-50.73233005 78.43427023 -50.73233005 78.43427023 -53.10424805 81.48413086 C-54.36515914 83.1574971 -55.57128636 84.87361269 -56.71801758 86.62719727 C-60.78273969 92.61734507 -60.78273969 92.61734507 -64.234375 93.70239258 C-66.69989396 93.88473405 -68.97733694 93.79444124 -71.4375 93.5625 C-72.26443359 93.52189453 -73.09136719 93.48128906 -73.94335938 93.43945312 C-75.96481327 93.33429078 -77.98320758 93.17286792 -80 93 C-78.00623042 88.72805121 -75.26392022 85.53512564 -72.1875 82 C-71.61217529 81.33645508 -71.03685059 80.67291016 -70.4440918 79.98925781 C-66.12301478 75.08949135 -61.53397675 70.63996012 -56.67553711 66.28149414 C-47.86667358 58.34670082 -40.40731971 49.22602748 -33 40 C-32.06446215 38.85623062 -31.12823039 37.71302856 -30.19140625 36.5703125 C-24.75744231 29.90440011 -19.59761298 23.12480052 -14.6875 16.0625 C-3.51444731 0 -3.51444731 0 0 0 Z " fill="#733535" transform="translate(1331,466)"/>
<path d="M0 0 C0.99 0.33 1.98 0.66 3 1 C3.22265625 3.32421875 3.22265625 3.32421875 3 6 C1.49609375 7.51953125 1.49609375 7.51953125 -0.5625 8.8125 C-9.81630384 15.22651219 -15.43470207 24.42589705 -20.125 34.5 C-22 38 -22 38 -24.07421875 39.0234375 C-24.70972656 39.34570312 -25.34523438 39.66796875 -26 40 C-26.226875 41.03125 -26.45375 42.0625 -26.6875 43.125 C-27.7675055 47.89089585 -31.18342964 50.07207898 -34.8046875 53.08203125 C-38.10667613 55.96686473 -40.47882566 58.91530266 -41.5625 63.25 C-42 65 -42 65 -45 67 C-45.72693904 68.97888961 -46.39816251 70.97954558 -47 73 C-48 74 -48 74 -51.59765625 74.09765625 C-53.08596867 74.0909822 -54.57426432 74.07902183 -56.0625 74.0625 C-56.82111328 74.05798828 -57.57972656 74.05347656 -58.36132812 74.04882812 C-60.24091871 74.0370068 -62.12046899 74.01907078 -64 74 C-62.64937867 71.14577434 -61.11992167 68.62089462 -59.27734375 66.05859375 C-58.74343018 65.31552979 -58.2095166 64.57246582 -57.65942383 63.80688477 C-57.09118896 63.02498779 -56.5229541 62.24309082 -55.9375 61.4375 C-55.35186279 60.63046631 -54.76622559 59.82343262 -54.1628418 58.99194336 C-47.4484166 49.79840245 -40.28375925 41.16743636 -32.5546875 32.80078125 C-30.6183064 30.67786802 -28.74016473 28.53209913 -26.87109375 26.3515625 C-22.21860539 21.01780793 -17.20047841 16.05472073 -12.1875 11.0625 C-11.22444087 10.09587098 -10.26154919 9.1290751 -9.29882812 8.16210938 C-8.38939453 7.25396484 -7.47996094 6.34582031 -6.54296875 5.41015625 C-5.71821045 4.58652588 -4.89345215 3.76289551 -4.04370117 2.91430664 C-2 1 -2 1 0 0 Z " fill="#733535" transform="translate(408,485)"/>


<path d="M0 0 C0.66 0 1.32 0 2 0 C1.42843784 3.40479315 0.59671522 6.16011302 -0.99365234 9.22021484 C-1.40432953 10.01809418 -1.81500671 10.81597351 -2.23812866 11.63803101 C-2.90529404 12.91161972 -2.90529404 12.91161972 -3.5859375 14.2109375 C-4.04352448 15.09729889 -4.50111145 15.98366028 -4.9725647 16.8968811 C-6.43420689 19.72598744 -7.90412315 22.55068542 -9.375 25.375 C-10.83741764 28.19282912 -12.29802236 31.01157271 -13.75601196 33.83169556 C-14.6624599 35.5839788 -15.57164275 37.33485087 -16.48397827 39.08407593 C-20.63403197 47.08780103 -23.34333254 53.86547917 -24.375 62.9140625 C-25.04438226 66.21913743 -25.9897525 68.30499666 -28 71 C-30.6875 71.8125 -30.6875 71.8125 -33 72 C-33 72.99 -33 73.98 -33 75 C-31.515 74.505 -31.515 74.505 -30 74 C-30 74.66 -30 75.32 -30 76 C-34.95 76 -39.9 76 -45 76 C-40.90676613 67.3457341 -36.22284198 59.19491122 -31.30834961 50.98730469 C-27.00895889 43.78119006 -22.9212403 36.47556769 -18.875 29.125 C-6.20877751 6.20877751 -6.20877751 6.20877751 0 0 Z " fill="#773B3B" transform="translate(746,483)"/>

<path d="M0 0 C3.26746488 2.76477797 3.91662061 4.45340177 4.5625 8.6875 C4.09669839 16.91666179 -0.79987729 23.41182674 -6.64453125 28.8203125 C-7.31548828 29.40425781 -7.31548828 29.40425781 -8 30 C-9.32 29.34 -10.64 28.68 -12 28 C-11.49954354 23.6627107 -8.74057577 21.22017653 -6 18 C-5.67 17.01 -5.34 16.02 -5 15 C-5.763125 14.9175 -6.52625 14.835 -7.3125 14.75 C-10 14 -10 14 -11.875 12.375 C-13.54489498 8.84966615 -13.05818303 6.70364061 -12 3 C-8.26829533 -1.39024079 -5.41578033 -1.67396847 0 0 Z " fill="#763A3A" transform="translate(665,600)"/>
<path d="M0 0 C5.79664417 3.42823918 9.47608198 7.64015954 11.65625 14.05078125 C13.43753057 30.40617553 6.01679865 44.44627139 -3.94750977 56.88061523 C-17.53043066 73.33591831 -17.53043066 73.33591831 -23.34375 74.05078125 C-20.59357061 69.61269555 -17.54611377 66.16845224 -13.71875 62.61328125 C-3.04691315 52.28474345 7.58401092 38.04700102 8.13232422 22.76147461 C8.19788103 16.87540929 8.01795079 12.97710342 4.65625 8.05078125 C4.65625 7.39078125 4.65625 6.73078125 4.65625 6.05078125 C3.8725 5.74140625 3.08875 5.43203125 2.28125 5.11328125 C-0.34375 4.05078125 -0.34375 4.05078125 -2.34375 3.05078125 C-11.41320371 1.94859069 -18.22563511 4.13356482 -25.44140625 9.65625 C-27.34375 11.05078125 -27.34375 11.05078125 -30.34375 12.05078125 C-27.81384518 6.10486282 -22.47776525 3.25871441 -17.03125 0.17578125 C-11.34977078 -1.55755139 -5.63231174 -2.28108626 0 0 Z " fill="#7B4141" transform="translate(265.34375,598.94921875)"/>

<path d="M0 0 C4.98012761 1.50912958 8.24259942 4.55661849 12 8 C13.65 7.01 15.3 6.02 17 5 C16.690625 5.7425 16.38125 6.485 16.0625 7.25 C15.18430031 9.52298743 14.41323247 11.6032517 14 14 C14.33 14.66 14.66 15.32 15 16 C15.1230891 18.31006744 15.1755634 20.62418636 15.1875 22.9375 C15.20167969 24.18402344 15.21585938 25.43054688 15.23046875 26.71484375 C15 30 15 30 13 33 C10.375 33.1875 10.375 33.1875 8 33 C5.51242751 29.26864127 5.41807923 25.32612155 6 21 C6.62194497 19.48993869 7.26849984 17.98981189 7.9375 16.5 C8.88495706 14.29694939 8.88495706 14.29694939 9 12 C6.86993176 8.17878667 3.93804728 4.96902364 0 3 C0 2.01 0 1.02 0 0 Z " fill="#7A3F3F" transform="translate(221,604)"/>



<path d="M0 0 C0.66 0 1.32 0 2 0 C1.47538917 4.24934775 0.17570202 6.36710445 -2.625 9.5625 C-6.55843188 14.25019211 -9.49448509 19.13524376 -12.359375 24.53125 C-14.06927357 27.10424023 -15.14116368 27.95590326 -18 29 C-16.491474 23.19869323 -13.46388386 18.81771513 -10.125 13.9375 C-9.33029297 12.75317383 -9.33029297 12.75317383 -8.51953125 11.54492188 C-2.91212518 3.24512604 -2.91212518 3.24512604 0 0 Z " fill="#804747" transform="translate(797,405)"/>



<path d="M0 0 C0.99 0 1.98 0 3 0 C2.41279306 3.78230349 0.72586412 5.76751772 -1.75 8.625 C-5.71954912 13.42272844 -8.48736852 18.32241926 -11 24 C-12.32 24 -13.64 24 -15 24 C-12.74235823 17.67860306 -8.77116514 12.49719842 -5 7 C-4.24203125 5.84371094 -4.24203125 5.84371094 -3.46875 4.6640625 C-2.1875 2.75 -2.1875 2.75 0 0 Z " fill="#793D3D" transform="translate(352,535)"/>


<path d="M0 0 C10.69220032 -0.19558903 21.32799208 0.40945411 32 1 C32 1.66 32 2.32 32 3 C27.92489562 3.0247345 23.84982036 3.04287637 19.7746582 3.05493164 C18.38858275 3.05995777 17.00251259 3.06677966 15.61645508 3.07543945 C13.62323285 3.08758018 11.62997181 3.09271021 9.63671875 3.09765625 C8.43748779 3.10289307 7.23825684 3.10812988 6.00268555 3.11352539 C3 3 3 3 0 2 C0 1.34 0 0.68 0 0 Z " fill="#753737" transform="translate(260,685)"/>
<path d="M0 0 C0 0.99 0 1.98 0 3 C-1.7015625 2.505 -1.7015625 2.505 -3.4375 2 C-10.02073996 0.35710295 -16.37343808 0.64070525 -23 2 C-23.33 1.01 -23.66 0.02 -24 -1 C-15.62264807 -4.52730608 -8.1018486 -3.6008216 0 0 Z " fill="#814949" transform="translate(221,603)"/>


<path d="M0 0 C0.66 0 1.32 0 2 0 C1.36929092 3.30713779 0.16114679 5.55199421 -1.72265625 8.328125 C-2.52993164 9.52695312 -2.52993164 9.52695312 -3.35351562 10.75 C-3.91748047 11.575 -4.48144531 12.4 -5.0625 13.25 C-5.63033203 14.09046875 -6.19816406 14.9309375 -6.78320312 15.796875 C-8.18366519 17.86814662 -9.5893906 19.93563166 -11 22 C-11.33 21.34 -11.66 20.68 -12 20 C-8.8313291 12.9639761 -4.87484649 5.98909712 0 0 Z " fill="#814A4A" transform="translate(776,436)"/>
<path d="M0 0 C-1.44912062 4.78209804 -4.2679954 8.70482037 -8 12 C-8.99 12 -9.98 12 -11 12 C-10.51594564 7.68819268 -9.37995134 5.9410446 -6.0625 3.1875 C-5.35222656 2.58292969 -4.64195312 1.97835938 -3.91015625 1.35546875 C-2 0 -2 0 0 0 Z " fill="#7E4444" transform="translate(907,287)"/>
<path d="M0 0 C-1.44912062 4.78209804 -4.2679954 8.70482037 -8 12 C-8.99 12 -9.98 12 -11 12 C-10.51594564 7.68819268 -9.37995134 5.9410446 -6.0625 3.1875 C-5.35222656 2.58292969 -4.64195312 1.97835938 -3.91015625 1.35546875 C-2 0 -2 0 0 0 Z " fill="#7F4747" transform="translate(463,416)"/>
<path d="M0 0 C0.66 0 1.32 0 2 0 C2.05410687 1.77049689 2.09284119 3.54146849 2.125 5.3125 C2.14820313 6.29863281 2.17140625 7.28476562 2.1953125 8.30078125 C2 11 2 11 0 14 C-2.625 14.1875 -2.625 14.1875 -5 14 C-6.42944945 11.64561267 -7.08661261 10.51967567 -6.625 7.75 C-6.41875 7.1725 -6.2125 6.595 -6 6 C-4 9 -4 9 -4 11 C-3.01 10.67 -2.02 10.34 -1 10 C-0.67 6.7 -0.34 3.4 0 0 Z " fill="#753838" transform="translate(234,623)"/>





<path d="M0 0 C0.66 0.33 1.32 0.66 2 1 C-5.11389522 9.81548975 -5.11389522 9.81548975 -10 11 C-8.67367286 5.36310966 -4.53368235 3.06814317 0 0 Z " fill="#834C4C" transform="translate(927,290)"/>

<path d="M0 0 C0 0.66 0 1.32 0 2 C-1.7902061 2.67057887 -3.58221489 3.3363469 -5.375 4 C-6.37273437 4.37125 -7.37046875 4.7425 -8.3984375 5.125 C-11 6 -11 6 -13 6 C-13 5.34 -13 4.68 -13 4 C-13.66 3.67 -14.32 3.34 -15 3 C-3 -1 -3 -1 0 0 Z " fill="#804848" transform="translate(218,687)"/>


<path d="M0 0 C0.99 0.33 1.98 0.66 3 1 C1.40517782 2.67561054 -0.20116844 4.34025934 -1.8125 6 C-2.70582031 6.928125 -3.59914063 7.85625 -4.51953125 8.8125 C-7 11 -7 11 -10 11 C-8.56285993 7.64170896 -6.79022601 5.60029302 -4.0625 3.1875 C-3.02802734 2.24970703 -3.02802734 2.24970703 -1.97265625 1.29296875 C-1.32167969 0.86628906 -0.67070312 0.43960937 0 0 Z " fill="#7B4040" transform="translate(483,419)"/>
<path d="M0 0 C0.66 0 1.32 0 2 0 C1.39301257 4.12751449 -0.03810791 7.3321148 -2 11 C-3.32 11 -4.64 11 -6 11 C-4.54997977 6.89160936 -2.6020866 3.49655387 0 0 Z " fill="#824B4B" transform="translate(343,548)"/>








<path d="M0 0 C0.66 0.33 1.32 0.66 2 1 C0.58972554 2.46451579 -0.82848796 3.9213893 -2.25 5.375 C-3.03890625 6.18710937 -3.8278125 6.99921875 -4.640625 7.8359375 C-6.73379455 9.75583143 -8.40397179 10.91633685 -11 12 C-9.49650623 8.33213607 -7.36271208 6.31089607 -4.375 3.75 C-3.14910156 2.69039062 -3.14910156 2.69039062 -1.8984375 1.609375 C-1.27195312 1.07828125 -0.64546875 0.5471875 0 0 Z " fill="#834C4C" transform="translate(532,970)"/>
<path d="M0 0 C0.66 0 1.32 0 2 0 C1.55530671 5.03985731 -0.71343362 7.37634988 -4 11 C-4.66 10.67 -5.32 10.34 -6 10 C-5.05065487 8.32819726 -4.09026687 6.66266064 -3.125 5 C-2.59132813 4.071875 -2.05765625 3.14375 -1.5078125 2.1875 C-1.01023437 1.465625 -0.51265625 0.74375 0 0 Z " fill="#814A4A" transform="translate(732,522)"/>
<path d="M0 0 C0.33 0 0.66 0 1 0 C0.67 3.96 0.34 7.92 0 12 C-0.99 11.34 -1.98 10.68 -3 10 C-2.25 2.25 -2.25 2.25 0 0 Z " fill="#824B4B" transform="translate(230,620)"/>
<path d="M0 0 C0 3 0 3 -1.96875 5.04296875 C-2.8040625 5.75066406 -3.639375 6.45835937 -4.5 7.1875 C-5.3353125 7.90292969 -6.170625 8.61835937 -7.03125 9.35546875 C-7.6809375 9.89816406 -8.330625 10.44085937 -9 11 C-9.66 10.67 -10.32 10.34 -11 10 C-9.54474941 8.51780033 -8.085701 7.03932861 -6.625 5.5625 C-5.81289063 4.73878906 -5.00078125 3.91507813 -4.1640625 3.06640625 C-2 1 -2 1 0 0 Z " fill="#814A4A" transform="translate(976,841)"/>




<path d="M0 0 C3.63 0.33 7.26 0.66 11 1 C11 1.33 11 1.66 11 2 C9.35 2 7.7 2 6 2 C6 2.66 6 3.32 6 4 C3.36 3.67 0.72 3.34 -2 3 C-1.34 2.67 -0.68 2.34 0 2 C0 1.34 0 0.68 0 0 Z " fill="#753737" transform="translate(254,683)"/>
<path d="M0 0 C0.33 0.66 0.66 1.32 1 2 C-1.22723982 4.33965571 -3.58956647 6.27099166 -6.1875 8.1875 C-6.90292969 8.71730469 -7.61835938 9.24710937 -8.35546875 9.79296875 C-8.89816406 10.19128906 -9.44085938 10.58960938 -10 11 C-8.55218207 7.55571735 -6.72305391 5.63869038 -3.875 3.25 C-3.15054687 2.63640625 -2.42609375 2.0228125 -1.6796875 1.390625 C-0.84824219 0.70226562 -0.84824219 0.70226562 0 0 Z " fill="#834D4D" transform="translate(448,461)"/>


<path d="M0 0 C0 0.66 0 1.32 0 2 C-3.82320557 3.42258812 -6.91281305 4.24042276 -11 4 C-7.63468909 0.12989245 -5.04040803 0 0 0 Z " fill="#743636" transform="translate(205,691)"/>
<path d="M0 0 C4.95 0.99 4.95 0.99 10 2 C10 2.66 10 3.32 10 4 C7.03 3.67 4.06 3.34 1 3 C0.67 2.01 0.34 1.02 0 0 Z " fill="#773B3B" transform="translate(244,681)"/>
<path d="M0 0 C3.63 0 7.26 0 11 0 C8.14521674 1.90318884 6.58058692 2.4619099 3.3125 3.125 C2.50425781 3.29257812 1.69601563 3.46015625 0.86328125 3.6328125 C0.24839844 3.75398437 -0.36648437 3.87515625 -1 4 C-0.67 2.68 -0.34 1.36 0 0 Z " fill="#865050" transform="translate(252,598)"/>

<path d="M0 0 C0.66 0 1.32 0 2 0 C1.67 3.3 1.34 6.6 1 10 C0.01 10.33 -0.98 10.66 -2 11 C-1.34 7.37 -0.68 3.74 0 0 Z " fill="#763939" transform="translate(275,619)"/>





<path d="M0 0 C0 3.3 0 6.6 0 10 C-3 7 -3 7 -3.1875 3.8125 C-3.125625 2.884375 -3.06375 1.95625 -3 1 C-1 0 -1 0 0 0 Z " fill="#814949" transform="translate(188,615)"/>





<path d="M0 0 C0.33 0.66 0.66 1.32 1 2 C-0.98 2.33 -2.96 2.66 -5 3 C-5 2.34 -5 1.68 -5 1 C-5.66 0.67 -6.32 0.34 -7 0 C-3.98968256 -0.93423645 -3.13349732 -1.04449911 0 0 Z " fill="#753737" transform="translate(210,690)"/>
<path d="M0 0 C0.66 0.33 1.32 0.66 2 1 C-0.625 5.875 -0.625 5.875 -4 7 C-2.92598892 4.08482708 -2.22189824 2.22189824 0 0 Z " fill="#814949" transform="translate(242,670)"/>

</svg>
